<svg width="747" height="108" fill="none" xmlns="http://www.w3.org/2000/svg"><mask id="a" maskUnits="userSpaceOnUse" x="122" y="0" width="625" height="108" fill="#000"><path fill="#fff" d="M122 0H747V108H122z"/><path d="M165.989 6.443c5.638 0 11.084 1.101 16.34 3.304 5.255 2.107 9.89 5.22 13.903 9.34 8.886 9.099 13.33 20.737 13.33 34.913 0 14.176-4.444 25.814-13.33 34.914-4.013 4.119-8.648 7.28-13.903 9.483a43.513 43.513 0 0 1-16.34 3.16H126V6.443h39.989zm-.43 84.913c9.938 0 18.012-3.687 24.223-11.063 6.02-7.088 9.03-15.852 9.03-26.293 0-10.44-3.01-19.205-9.03-26.293-6.211-7.376-14.285-11.063-24.223-11.063H136.75v74.712h28.809zm114.966-1.293c-5.734 8.43-14.286 12.644-25.657 12.644-10.319 0-18.728-3.592-25.226-10.776-6.306-7.088-9.459-15.852-9.459-26.293 0-10.44 3.153-19.205 9.459-26.293 6.498-7.184 15.146-10.776 25.943-10.776 10.798 0 19.111 4.262 24.94 12.787V29.718h10.749v71.839h-10.749V90.063zm-24.223 2.874c7.74 0 13.855-2.682 18.346-8.046 4.3-5.077 6.45-11.494 6.45-19.253s-2.15-14.176-6.45-19.253c-4.491-5.364-10.606-8.046-18.346-8.046-7.644 0-13.855 2.682-18.633 8.046-4.491 5.077-6.737 11.494-6.737 19.253s2.246 14.176 6.737 19.253c4.778 5.364 10.989 8.046 18.633 8.046zm61.306 8.62V39.201h-14.62v-9.483h14.62V4h10.75v25.718h16.483v9.483h-16.483v62.356h-10.75zm93.51-11.494c-5.734 8.43-14.286 12.644-25.657 12.644-10.319 0-18.728-3.592-25.226-10.776-6.306-7.088-9.459-15.852-9.459-26.293 0-10.44 3.153-19.205 9.459-26.293 6.498-7.184 15.146-10.776 25.943-10.776 10.798 0 19.111 4.262 24.94 12.787V29.718h10.749v71.839h-10.749V90.063zm-24.223 2.874c7.74 0 13.855-2.682 18.346-8.046 4.3-5.077 6.45-11.494 6.45-19.253s-2.15-14.176-6.45-19.253c-4.491-5.364-10.606-8.046-18.346-8.046-7.645 0-13.856 2.682-18.633 8.046-4.491 5.077-6.737 11.494-6.737 19.253s2.246 14.176 6.737 19.253c4.777 5.364 10.988 8.046 18.633 8.046zM482.6 48.97c-.955-7.471-6.975-11.207-18.059-11.207-10.989 0-16.483 3.449-16.483 10.345 0 2.874 1.146 5.077 3.44 6.61 2.388 1.436 5.351 2.633 8.886 3.591 3.535.958 7.358 1.868 11.466 2.73 4.205.767 8.075 1.916 11.61 3.449 3.536 1.436 6.45 3.448 8.743 6.034 2.389 2.586 3.584 6.13 3.584 10.632 0 6.992-2.628 12.356-7.884 16.092-5.255 3.64-12.374 5.46-21.356 5.46-9.555 0-17.152-2.395-22.789-7.184-5.16-4.215-7.931-9.722-8.313-16.523h11.179c.669 6.61 4.396 11.063 11.18 13.362 2.484.766 4.921 1.15 7.31 1.15 2.484 0 4.778-.144 6.88-.431a27.77 27.77 0 0 0 6.163-1.581c4.587-1.82 6.88-4.933 6.88-9.34 0-2.968-1.195-5.22-3.583-6.752-2.294-1.628-5.208-2.921-8.744-3.88-3.535-1.053-7.405-1.963-11.609-2.73-4.109-.861-7.931-2.01-11.467-3.447-3.535-1.437-6.497-3.4-8.886-5.891-2.294-2.49-3.44-5.939-3.44-10.345 0-6.514 2.341-11.542 7.023-15.086 4.778-3.64 11.801-5.46 21.07-5.46 8.79 0 15.718 2.107 20.782 6.322 4.205 3.544 6.641 8.237 7.31 14.08H482.6zm58.969 43.966c9.651 0 16.579-4.023 20.783-12.07h11.753c-2.484 6.514-6.449 11.782-11.896 15.805-5.351 4.023-12.279 6.035-20.783 6.035-10.797 0-19.588-3.592-26.373-10.776-6.593-6.992-9.89-15.757-9.89-26.293 0-10.632 3.154-19.397 9.46-26.293 6.689-7.184 15.384-10.776 26.086-10.776 10.702 0 19.398 3.592 26.087 10.776 6.306 6.896 9.459 15.66 9.459 26.293v4.31H516.2c.764 6.61 3.392 12.07 7.883 16.38 4.587 4.406 10.415 6.609 17.486 6.609zm-.86-54.598c-6.593 0-12.135 2.06-16.626 6.178-4.204 3.927-6.784 9.052-7.74 15.374h48.733c-.956-6.322-3.536-11.447-7.74-15.374-4.491-4.119-10.033-6.178-16.627-6.178zm167.605 54.598c9.651 0 16.579-4.023 20.783-12.07h11.753c-2.484 6.514-6.45 11.782-11.896 15.805-5.351 4.023-12.279 6.035-20.783 6.035-10.798 0-19.589-3.592-26.373-10.776-6.593-6.992-9.89-15.757-9.89-26.293 0-10.632 3.153-19.397 9.46-26.293 6.689-7.184 15.384-10.776 26.086-10.776 10.702 0 19.397 3.592 26.086 10.776 6.307 6.896 9.46 15.66 9.46 26.293v4.31h-60.055c.764 6.61 3.392 12.07 7.883 16.38 4.586 4.406 10.415 6.609 17.486 6.609zm-.86-54.598c-6.593 0-12.135 2.06-16.626 6.178-4.205 3.927-6.785 9.052-7.74 15.374h48.732c-.955-6.322-3.535-11.447-7.74-15.374-4.491-4.119-10.033-6.178-16.626-6.178zM600.71 104V41.644h-14.62V32.16h14.62V6.443h10.75V32.16h10.105v9.483H611.46V104h-10.75zm35.474 0V41.644h-14.619V32.16h14.619V6.444h10.75V32.16h16.483v9.483h-16.483V104h-10.75z"/></mask><path d="M165.989 6.443c5.638 0 11.084 1.101 16.34 3.304 5.255 2.107 9.89 5.22 13.903 9.34 8.886 9.099 13.33 20.737 13.33 34.913 0 14.176-4.444 25.814-13.33 34.914-4.013 4.119-8.648 7.28-13.903 9.483a43.513 43.513 0 0 1-16.34 3.16H126V6.443h39.989zm-.43 84.913c9.938 0 18.012-3.687 24.223-11.063 6.02-7.088 9.03-15.852 9.03-26.293 0-10.44-3.01-19.205-9.03-26.293-6.211-7.376-14.285-11.063-24.223-11.063H136.75v74.712h28.809zm114.966-1.293c-5.734 8.43-14.286 12.644-25.657 12.644-10.319 0-18.728-3.592-25.226-10.776-6.306-7.088-9.459-15.852-9.459-26.293 0-10.44 3.153-19.205 9.459-26.293 6.498-7.184 15.146-10.776 25.943-10.776 10.798 0 19.111 4.262 24.94 12.787V29.718h10.749v71.839h-10.749V90.063zm-24.223 2.874c7.74 0 13.855-2.682 18.346-8.046 4.3-5.077 6.45-11.494 6.45-19.253s-2.15-14.176-6.45-19.253c-4.491-5.364-10.606-8.046-18.346-8.046-7.644 0-13.855 2.682-18.633 8.046-4.491 5.077-6.737 11.494-6.737 19.253s2.246 14.176 6.737 19.253c4.778 5.364 10.989 8.046 18.633 8.046zm61.306 8.62V39.201h-14.62v-9.483h14.62V4h10.75v25.718h16.483v9.483h-16.483v62.356h-10.75zm93.51-11.494c-5.734 8.43-14.286 12.644-25.657 12.644-10.319 0-18.728-3.592-25.226-10.776-6.306-7.088-9.459-15.852-9.459-26.293 0-10.44 3.153-19.205 9.459-26.293 6.498-7.184 15.146-10.776 25.943-10.776 10.798 0 19.111 4.262 24.94 12.787V29.718h10.749v71.839h-10.749V90.063zm-24.223 2.874c7.74 0 13.855-2.682 18.346-8.046 4.3-5.077 6.45-11.494 6.45-19.253s-2.15-14.176-6.45-19.253c-4.491-5.364-10.606-8.046-18.346-8.046-7.645 0-13.856 2.682-18.633 8.046-4.491 5.077-6.737 11.494-6.737 19.253s2.246 14.176 6.737 19.253c4.777 5.364 10.988 8.046 18.633 8.046zM482.6 48.97c-.955-7.471-6.975-11.207-18.059-11.207-10.989 0-16.483 3.449-16.483 10.345 0 2.874 1.146 5.077 3.44 6.61 2.388 1.436 5.351 2.633 8.886 3.591 3.535.958 7.358 1.868 11.466 2.73 4.205.767 8.075 1.916 11.61 3.449 3.536 1.436 6.45 3.448 8.743 6.034 2.389 2.586 3.584 6.13 3.584 10.632 0 6.992-2.628 12.356-7.884 16.092-5.255 3.64-12.374 5.46-21.356 5.46-9.555 0-17.152-2.395-22.789-7.184-5.16-4.215-7.931-9.722-8.313-16.523h11.179c.669 6.61 4.396 11.063 11.18 13.362 2.484.766 4.921 1.15 7.31 1.15 2.484 0 4.778-.144 6.88-.431a27.77 27.77 0 0 0 6.163-1.581c4.587-1.82 6.88-4.933 6.88-9.34 0-2.968-1.195-5.22-3.583-6.752-2.294-1.628-5.208-2.921-8.744-3.88-3.535-1.053-7.405-1.963-11.609-2.73-4.109-.861-7.931-2.01-11.467-3.447-3.535-1.437-6.497-3.4-8.886-5.891-2.294-2.49-3.44-5.939-3.44-10.345 0-6.514 2.341-11.542 7.023-15.086 4.778-3.64 11.801-5.46 21.07-5.46 8.79 0 15.718 2.107 20.782 6.322 4.205 3.544 6.641 8.237 7.31 14.08H482.6zm58.969 43.966c9.651 0 16.579-4.023 20.783-12.07h11.753c-2.484 6.514-6.449 11.782-11.896 15.805-5.351 4.023-12.279 6.035-20.783 6.035-10.797 0-19.588-3.592-26.373-10.776-6.593-6.992-9.89-15.757-9.89-26.293 0-10.632 3.154-19.397 9.46-26.293 6.689-7.184 15.384-10.776 26.086-10.776 10.702 0 19.398 3.592 26.087 10.776 6.306 6.896 9.459 15.66 9.459 26.293v4.31H516.2c.764 6.61 3.392 12.07 7.883 16.38 4.587 4.406 10.415 6.609 17.486 6.609zm-.86-54.598c-6.593 0-12.135 2.06-16.626 6.178-4.204 3.927-6.784 9.052-7.74 15.374h48.733c-.956-6.322-3.536-11.447-7.74-15.374-4.491-4.119-10.033-6.178-16.627-6.178zm167.605 54.598c9.651 0 16.579-4.023 20.783-12.07h11.753c-2.484 6.514-6.45 11.782-11.896 15.805-5.351 4.023-12.279 6.035-20.783 6.035-10.798 0-19.589-3.592-26.373-10.776-6.593-6.992-9.89-15.757-9.89-26.293 0-10.632 3.153-19.397 9.46-26.293 6.689-7.184 15.384-10.776 26.086-10.776 10.702 0 19.397 3.592 26.086 10.776 6.307 6.896 9.46 15.66 9.46 26.293v4.31h-60.055c.764 6.61 3.392 12.07 7.883 16.38 4.586 4.406 10.415 6.609 17.486 6.609zm-.86-54.598c-6.593 0-12.135 2.06-16.626 6.178-4.205 3.927-6.785 9.052-7.74 15.374h48.732c-.955-6.322-3.535-11.447-7.74-15.374-4.491-4.119-10.033-6.178-16.626-6.178zM600.71 104V41.644h-14.62V32.16h14.62V6.443h10.75V32.16h10.105v9.483H611.46V104h-10.75zm35.474 0V41.644h-14.619V32.16h14.619V6.444h10.75V32.16h16.483v9.483h-16.483V104h-10.75z" fill="#0E0C82" fill-opacity=".3"/><path d="M623.565 32.16a2 2 0 0 0-4 0h4zm-4 9.484a2 2 0 1 0 4 0h-4zm0-9.483V37h4v-4.84h-4zm0 4.839v4.644h4V37h-4zM182.329 9.747l-1.547 3.69.029.011.029.012 1.489-3.713zm13.903 9.34l-2.865 2.79.003.004 2.862-2.795zm0 69.827l-2.862-2.795-.003.003 2.865 2.792zm-13.903 9.483l1.488 3.712.029-.011.029-.012-1.546-3.69zM126 101.557h-4v4h4v-4zm0-95.114v-4h-4v4h4zm63.782 73.85l-3.049-2.59-.005.007-.006.007 3.06 2.576zm0-52.586l-3.06 2.576.006.007.005.006 3.049-2.59zM136.75 16.644v-4h-4v4h4zm0 74.712h-4v4h4v-4zm143.775-1.293h4V77.07l-7.308 10.744 3.308 2.25zm-50.883 1.868l-2.988 2.659.011.012.011.012 2.966-2.683zm0-52.586l-2.966-2.683-.011.012-.011.012 2.988 2.659zm50.883 2.011l-3.302 2.258 7.302 10.68V41.355h-4zm0-11.638v-4h-4v4h4zm10.749 0h4v-4h-4v4zm0 71.839v4h4v-4h-4zm-10.749 0h-4v4h4v-4zm-5.877-16.666l-3.052-2.586-.008.01-.007.008 3.067 2.568zm0-38.506l-3.067 2.568.007.009.008.008 3.052-2.585zm-36.979 0l-2.987-2.66-.009.01 2.996 2.65zm0 38.506l-2.996 2.65.009.01 2.987-2.66zm79.939 16.666h-4v4h4v-4zm0-62.356h4v-4h-4v4zm-14.62 0h-4v4h4v-4zm0-9.483v-4h-4v4h4zm14.62 0v4h4v-4h-4zm0-25.718V0h-4v4h4zm10.75 0h4V0h-4v4zm0 25.718h-4v4h4v-4zm16.483 0h4v-4h-4v4zm0 9.483v4h4v-4h-4zm-16.483 0v-4h-4v4h4zm0 62.356v4h4v-4h-4zm82.76-11.494h4V77.07l-7.308 10.744 3.308 2.25zm-50.883 1.868l-2.988 2.659.011.012.011.012 2.966-2.683zm0-52.586l-2.966-2.683-.011.012-.011.012 2.988 2.659zm50.883 2.011l-3.302 2.258 7.302 10.68V41.355h-4zm0-11.638v-4h-4v4h4zm10.749 0h4v-4h-4v4zm0 71.839v4h4v-4h-4zm-10.749 0h-4v4h4v-4zm-5.877-16.666l-3.052-2.586-.008.01-.007.008 3.067 2.568zm0-38.506l-3.067 2.568.007.009.008.008 3.052-2.585zm-36.979 0l-2.987-2.66-.009.01 2.996 2.65zm0 38.506l-2.996 2.65.009.01 2.987-2.66zM482.6 48.97l-3.967.508.446 3.492h3.521v-4zm-31.102 5.747l-2.223 3.326.079.053.082.05 2.062-3.429zm8.886 3.592l1.046-3.86-1.046 3.86zm11.466 2.73l-.821 3.915.052.01.052.01.717-3.935zm11.61 3.449l-1.591 3.67.043.018.042.017 1.506-3.706zm8.743 6.034l-2.993 2.654.027.03.028.03 2.938-2.714zm-4.3 26.724l2.278 3.288.02-.013.02-.015-2.318-3.26zm-44.145-1.724l2.589-3.048-.029-.025-.03-.025-2.53 3.098zM435.445 79v-4h-4.232l.238 4.224 3.994-.224zm11.179 0l3.98-.403L450.24 75h-3.616v4zm11.18 13.362l-1.284 3.788.052.018.053.016 1.179-3.822zm14.19.719l.541 3.963-.541-3.963zm6.163-1.581l1.427 3.737.024-.01.024-.009-1.475-3.718zm3.297-16.092l-2.316 3.261.076.055.08.05 2.16-3.366zm-8.744-3.88l-1.142 3.834.048.014.048.014 1.046-3.861zm-11.609-2.73l-.822 3.916.052.01.052.01.718-3.935zm-11.467-3.447l-1.506 3.705 1.506-3.705zm-8.886-5.891l-2.943 2.71.028.03.028.029 2.887-2.77zm3.583-25.431l2.414 3.19.01-.008-2.424-3.182zm41.852.862l2.579-3.059-.01-.008-.01-.008-2.559 3.075zm7.31 14.08v4h4.484l-.51-4.455-3.974.455zm68.859 31.897v-4h-2.423l-1.122 2.147 3.545 1.853zm11.753 0l3.738 1.425 2.069-5.425h-5.807v4zm-11.896 15.804l-2.377-3.217-.013.01-.014.01 2.404 3.197zm-47.156-4.741l-2.91 2.744.002.002 2.908-2.746zm-.43-52.586l-2.927-2.726-.012.013-.013.014 2.952 2.699zm52.173 0l2.951-2.7-.012-.013-.012-.013-2.927 2.726zm9.459 30.603v4h4v-4h-4zm-60.055 0v-4h-4.489l.515 4.46 3.974-.46zm7.883 16.38l2.771-2.885-.001-.001-2.77 2.886zm0-41.81l-2.704-2.949-.013.013-.013.012 2.73 2.923zm-7.74 15.373l-3.955-.598-.695 4.598h4.65v-4zm48.733 0v4h4.65l-.695-4.598-3.955.598zm-7.74-15.374l2.73-2.923-.013-.012-.014-.013-2.703 2.948zm171.761 36.35v-4h-2.423l-1.122 2.148 3.545 1.853zm11.753 0l3.737 1.426 2.07-5.425h-5.807v4zm-11.896 15.805l-2.377-3.217-.014.01-.013.01 2.404 3.197zm-47.156-4.741l-2.91 2.744.002.002 2.908-2.746zm-.43-52.586l-2.928-2.726-.012.013-.012.014 2.952 2.699zm52.172 0l2.952-2.7-.012-.013-.012-.013-2.928 2.726zM743 69.948v4h4v-4h-4zm-60.055 0v-4h-4.49l.516 4.46 3.974-.46zm7.883 16.38l2.771-2.885-.001-.001-2.77 2.886zm0-41.81l-2.704-2.949-.013.013-.014.012 2.731 2.923zm-7.74 15.373l-3.955-.598-.695 4.598h4.65v-4zm48.732 0v4h4.65l-.695-4.598-3.955.598zm-7.74-15.374l2.731-2.923-.014-.012-.013-.013-2.704 2.948zM600.71 104h-4v4h4v-4zm0-62.356h4v-4h-4v4zm-14.62 0h-4v4h4v-4zm0-9.483v-4h-4v4h4zm14.62 0v4h4v-4h-4zm0-25.718v-4h-4v4h4zm10.75 0h4v-4h-4v4zm0 25.718h-4v4h4v-4zm0 9.483v-4h-4v4h4zm0 62.356v4h4v-4h-4zm24.724 0h-4v4h4v-4zm0-62.356h4v-4h-4v4zm0-9.483v4h4v-4h-4zm0-25.718v-4h-4v4h4zm10.75 0h4v-4h-4v4zm0 25.718h-4v4h4v-4zm16.483 0h4v-4h-4v4zm0 9.483v4h4v-4h-4zm-16.483 0v-4h-4v4h4zm0 62.356v4h4v-4h-4zM165.989 10.442c5.101 0 10.022.994 14.793 2.994l3.093-7.378c-5.74-2.406-11.711-3.615-17.886-3.615v8zm14.851 3.018c4.729 1.896 8.897 4.692 12.527 8.418l5.73-5.583c-4.397-4.512-9.498-7.942-15.28-10.26l-2.977 7.425zm12.53 8.42c8.07 8.265 12.192 18.858 12.192 32.12h8c0-15.09-4.766-27.773-14.468-37.709l-5.724 5.59zM205.562 54c0 13.262-4.122 23.855-12.192 32.12l5.724 5.588c9.702-9.935 14.468-22.618 14.468-37.708h-8zm-12.195 32.122c-3.642 3.738-7.829 6.592-12.585 8.586l3.093 7.378c5.756-2.413 10.837-5.88 15.222-10.38l-5.73-5.584zm-12.527 8.562a39.511 39.511 0 0 1-14.851 2.874v7.999c6.15 0 12.102-1.152 17.828-3.448l-2.977-7.425zm-14.851 2.874H126v7.999h39.989v-8zM130 101.556V6.443h-8v95.114h8zm-4-91.115h39.989v-8H126v8zm39.559 84.914c11.076 0 20.285-4.177 27.283-12.486l-6.12-5.153c-5.424 6.441-12.364 9.64-21.163 9.64v8zm27.272-12.474c6.71-7.9 9.981-17.617 9.981-28.882h-8c0 9.616-2.749 17.428-8.079 23.704l6.098 5.178zM202.812 54c0-11.265-3.271-20.982-9.981-28.882l-6.098 5.178c5.33 6.276 8.079 14.088 8.079 23.704h8zm-9.97-28.87c-6.998-8.309-16.207-12.486-27.283-12.486v8c8.799 0 15.739 3.198 21.163 9.64l6.12-5.154zm-27.283-12.486H136.75v8h28.809v-8zm-32.809 4v74.712h8V16.644h-8zm4 78.712h28.809v-8H136.75v8zm140.467-7.542c-4.893 7.194-12.123 10.893-22.349 10.893v8c12.517 0 22.391-4.73 28.964-14.394l-6.615-4.5zm-22.349 10.893c-9.272 0-16.574-3.173-22.259-9.46l-5.933 5.367c7.31 8.082 16.825 12.093 28.192 12.093v-8zm-22.237-9.435c-5.588-6.28-8.448-14.068-8.448-23.634h-8c0 11.315 3.445 21.056 10.471 28.952l5.977-5.318zm-8.448-23.634c0-9.567 2.86-17.354 8.448-23.634l-5.977-5.318c-7.026 7.896-10.471 17.637-10.471 28.952h8zm8.426-23.61c5.648-6.244 13.165-9.459 22.976-9.459v-8c-11.784 0-21.562 3.969-28.909 12.093l5.933 5.366zm22.976-9.459c9.549 0 16.594 3.668 21.638 11.045l6.604-4.515c-6.614-9.673-16.195-14.53-28.242-14.53v8zm28.94 8.787V29.718h-8v11.638h8zm-4-7.638h10.749v-8h-10.749v8zm6.749-4v71.839h8V29.718h-8zm4 67.84h-10.749v7.999h10.749v-8zm-6.749 3.999V90.063h-8v11.494h8zm-28.223-4.62c8.781 0 16.075-3.103 21.413-9.478l-6.134-5.136c-3.644 4.353-8.581 6.614-15.279 6.614v8zm21.398-9.46c5.011-5.917 7.398-13.3 7.398-21.84h-8c0 6.979-1.913 12.431-5.502 16.668l6.104 5.171zm7.398-21.84c0-8.539-2.387-15.921-7.398-21.837l-6.104 5.17c3.589 4.237 5.502 9.69 5.502 16.668h8zm-7.383-21.82c-5.338-6.375-12.632-9.478-21.413-9.478v8c6.698 0 11.635 2.261 15.279 6.614l6.134-5.136zm-21.413-9.478c-8.703 0-16.03 3.11-21.62 9.386l5.974 5.32c3.965-4.451 9.06-6.706 15.646-6.706v-8zm-21.629 9.396c-5.231 5.913-7.741 13.319-7.741 21.903h8c0-6.933 1.982-12.363 5.733-16.603l-5.992-5.3zm-7.741 21.903c0 8.584 2.51 15.99 7.741 21.903l5.992-5.3c-3.751-4.24-5.733-9.67-5.733-16.603h-8zm7.75 21.913c5.59 6.276 12.917 9.386 21.62 9.386v-8c-6.586 0-11.681-2.255-15.646-6.707l-5.974 5.321zm86.926 14.006V39.201h-8v62.356h8zm-4-66.356h-14.62v8h14.62v-8zm-10.62 4v-9.483h-8v9.483h8zm-4-5.483h14.62v-8h-14.62v8zm18.62-4V4h-8v25.718h8zm-4-21.718h10.75V0h-10.75v8zm6.75-4v25.718h8V4h-8zm4 29.718h16.483v-8h-16.483v8zm12.483-4v9.483h8v-9.483h-8zm4 5.483h-16.483v8h16.483v-8zm-20.483 4v62.356h8V39.201h-8zm4 58.357h-10.75v7.999h10.75v-8zm79.452-9.744c-4.893 7.194-12.123 10.893-22.349 10.893v8c12.517 0 22.391-4.73 28.964-14.394l-6.615-4.5zm-22.349 10.893c-9.272 0-16.574-3.173-22.259-9.46l-5.933 5.367c7.31 8.082 16.825 12.093 28.192 12.093v-8zm-22.237-9.435c-5.588-6.28-8.448-14.068-8.448-23.634h-8c0 11.315 3.445 21.056 10.471 28.952l5.977-5.318zm-8.448-23.634c0-9.567 2.86-17.354 8.448-23.634l-5.977-5.318c-7.026 7.896-10.471 17.637-10.471 28.952h8zm8.426-23.61c5.648-6.244 13.165-9.459 22.976-9.459v-8c-11.784 0-21.562 3.969-28.909 12.093l5.933 5.366zm22.976-9.459c9.549 0 16.594 3.668 21.638 11.045l6.604-4.515c-6.614-9.673-16.195-14.53-28.242-14.53v8zm28.94 8.787V29.718h-8v11.638h8zm-4-7.638h10.749v-8h-10.749v8zm6.749-4v71.839h8V29.718h-8zm4 67.84h-10.749v7.999h10.749v-8zm-6.749 3.999V90.063h-8v11.494h8zm-28.223-4.62c8.781 0 16.075-3.103 21.413-9.478l-6.134-5.136c-3.644 4.353-8.581 6.614-15.279 6.614v8zm21.398-9.46c5.011-5.917 7.398-13.3 7.398-21.84h-8c0 6.979-1.914 12.431-5.502 16.668l6.104 5.171zm7.398-21.84c0-8.539-2.387-15.921-7.398-21.837l-6.104 5.17c3.588 4.237 5.502 9.69 5.502 16.668h8zm-7.383-21.82c-5.338-6.375-12.632-9.478-21.413-9.478v8c6.698 0 11.635 2.261 15.279 6.614l6.134-5.136zm-21.413-9.478c-8.703 0-16.03 3.11-21.62 9.386l5.974 5.32c3.965-4.451 9.06-6.706 15.646-6.706v-8zm-21.629 9.396c-5.231 5.913-7.741 13.319-7.741 21.903h8c0-6.933 1.982-12.363 5.733-16.603l-5.992-5.3zm-7.741 21.903c0 8.584 2.51 15.99 7.741 21.903l5.992-5.3c-3.751-4.24-5.733-9.67-5.733-16.603h-8zm7.75 21.913c5.59 6.276 12.917 9.386 21.62 9.386v-8c-6.586 0-11.681-2.255-15.646-6.707l-5.974 5.321zm121.293-39.087c-.62-4.844-2.985-8.75-7.09-11.297-3.906-2.424-9.036-3.403-14.937-3.403v8c5.182 0 8.605.889 10.719 2.2 1.914 1.19 3.036 2.887 3.373 5.515l7.935-1.015zm-22.027-14.7c-5.784 0-10.802.884-14.489 3.199-3.999 2.51-5.994 6.426-5.994 11.146h8c0-2.176.751-3.432 2.247-4.37 1.807-1.135 5.03-1.975 10.236-1.975v-8zM444.058 48.11c0 4.143 1.759 7.624 5.217 9.935l4.445-6.651c-1.128-.754-1.662-1.68-1.662-3.284h-8zm5.378 10.037c2.787 1.676 6.115 2.999 9.902 4.025l2.092-7.721c-3.283-.89-5.88-1.962-7.871-3.16l-4.123 6.856zm9.902 4.025c3.62.98 7.517 1.908 11.691 2.784l1.643-7.83a200.689 200.689 0 0 1-11.242-2.675l-2.092 7.721zm11.795 2.804c3.936.718 7.509 1.785 10.736 3.184l3.182-7.34c-3.844-1.667-8.011-2.899-12.483-3.714l-1.435 7.87zm10.821 3.22c3.026 1.229 5.412 2.902 7.256 4.982l5.986-5.308c-2.742-3.093-6.185-5.442-10.23-7.086l-3.012 7.411zm7.311 5.042c1.532 1.659 2.522 4.132 2.522 7.918h8c0-5.217-1.4-9.832-4.645-13.346l-5.877 5.428zm2.522 7.918c0 5.826-2.101 9.918-6.201 12.832l4.635 6.52c6.411-4.557 9.566-11.192 9.566-19.352h-8zm-6.161 12.804c-4.365 3.023-10.592 4.748-19.079 4.748v8c9.478 0 17.488-1.915 23.634-6.172l-4.555-6.576zm-19.079 4.748c-8.889 0-15.474-2.218-20.2-6.232l-5.179 6.097c6.55 5.564 15.157 8.135 25.379 8.135v-8zm-20.259-6.282c-4.269-3.487-6.529-7.94-6.85-13.65l-7.987.45c.443 7.892 3.725 14.453 9.776 19.396l5.061-6.196zM435.445 83h11.179v-8h-11.179v8zm7.2-3.597c.403 3.982 1.76 7.535 4.208 10.461 2.433 2.909 5.742 4.956 9.667 6.286l2.568-7.576c-2.859-.969-4.806-2.298-6.099-3.843-1.279-1.528-2.119-3.507-2.385-6.134l-7.959.806zm13.98 16.781c2.833.874 5.667 1.328 8.489 1.328v-8c-1.956 0-3.995-.313-6.131-.972l-2.358 7.644zm8.489 1.328c2.636 0 5.113-.153 7.421-.468l-1.083-7.927c-1.895.26-4.005.394-6.338.394v8zm7.421-.468c2.409-.33 4.76-.933 7.049-1.807l-2.854-7.474a23.761 23.761 0 0 1-5.278 1.354l1.083 7.927zm7.097-1.826c2.8-1.11 5.207-2.74 6.905-5.045 1.722-2.338 2.5-5.08 2.5-8.012h-8c0 1.474-.369 2.491-.941 3.267-.595.808-1.627 1.645-3.414 2.354l2.95 7.436zm9.405-13.057c0-4.256-1.826-7.811-5.424-10.12l-4.319 6.734c1.179.757 1.743 1.703 1.743 3.386h8zm-5.268-10.014c-2.774-1.97-6.152-3.433-10.013-4.48l-2.092 7.723c3.211.87 5.662 1.993 7.474 3.28l4.631-6.523zm-9.916-4.452c-3.695-1.1-7.709-2.043-12.035-2.831l-1.435 7.87c4.083.744 7.809 1.622 11.185 2.628l2.285-7.667zm-11.931-2.81c-3.898-.819-7.489-1.902-10.782-3.24l-3.012 7.411c3.778 1.535 7.831 2.751 12.151 3.658l1.643-7.83zm-10.782-3.24c-3.07-1.248-5.545-2.91-7.506-4.954l-5.773 5.538c2.818 2.937 6.266 5.201 10.267 6.827l3.012-7.411zm-7.45-4.895c-1.428-1.55-2.382-3.921-2.382-7.635h-8c0 5.099 1.339 9.624 4.497 13.054l5.885-5.419zm-2.382-7.635c0-5.418 1.873-9.2 5.437-11.897l-4.828-6.379c-5.8 4.39-8.609 10.667-8.609 18.276h8zm5.447-11.904c3.793-2.89 9.805-4.642 18.646-4.642v-8c-9.697 0-17.732 1.888-23.494 6.278l4.848 6.364zm18.646-4.642c8.17 0 14.087 1.954 18.224 5.396l5.117-6.149c-5.992-4.986-13.93-7.247-23.341-7.247v8zm18.204 5.38c3.367 2.838 5.353 6.571 5.914 11.477l7.948-.91c-.776-6.78-3.663-12.433-8.705-16.684l-5.157 6.117zm9.888 7.022H482.6v8h10.893v-8zm48.076 51.966c5.387 0 10.255-1.126 14.443-3.558 4.202-2.44 7.481-6.057 9.885-10.659l-7.09-3.705c-1.8 3.445-4.086 5.862-6.812 7.445-2.74 1.592-6.161 2.477-10.426 2.477v8zm20.783-12.07h11.753v-8h-11.753v8zm8.016-5.425c-2.22 5.82-5.724 10.459-10.536 14.013l4.754 6.435c6.081-4.492 10.508-10.39 13.257-17.597l-7.475-2.85zm-10.563 14.033c-4.49 3.376-10.505 5.232-18.379 5.232v8c9.135 0 16.975-2.167 23.187-6.837l-4.808-6.395zm-18.379 5.232c-9.81 0-17.51-3.217-23.465-9.522l-5.816 5.492c7.615 8.063 17.496 12.03 29.281 12.03v-8zm-23.462-9.52c-5.824-6.176-8.801-13.926-8.801-23.55h-8c0 11.45 3.617 21.23 10.98 29.038l5.821-5.488zm-8.801-23.55c0-9.78 2.873-17.536 8.412-23.593l-5.904-5.398c-7.074 7.736-10.508 17.508-10.508 28.992h8zm8.388-23.566c5.859-6.293 13.455-9.502 23.158-9.502v-8c-11.7 0-21.495 3.975-29.013 12.05l5.855 5.452zm23.158-9.502c9.704 0 17.3 3.209 23.159 9.502l5.855-5.452c-7.518-8.075-17.313-12.05-29.014-12.05v8zm23.135 9.475c5.539 6.057 8.411 13.813 8.411 23.594h8c0-11.484-3.433-21.257-10.508-28.993l-5.903 5.4zm8.411 23.594v4.31h8v-4.31h-8zm4 .31H516.2v8h60.055v-8zm-64.029 4.46c.864 7.465 3.877 13.805 9.087 18.805l5.54-5.771c-3.772-3.62-6.014-8.2-6.68-13.953l-7.947.919zm9.086 18.804c5.418 5.205 12.279 7.725 20.257 7.725v-8c-6.163 0-10.959-1.886-14.715-5.494l-5.542 5.77zm19.397-54.873c-7.504 0-14.037 2.377-19.33 7.23l5.408 5.896c3.69-3.384 8.241-5.126 13.922-5.126v-8zm-19.356 7.255c-4.937 4.611-7.89 10.591-8.965 17.699l7.91 1.196c.837-5.536 3.043-9.805 6.516-13.049l-5.461-5.846zm-5.01 22.297h48.733v-8h-48.733v8zm52.688-4.598c-1.075-7.108-4.028-13.088-8.965-17.699l-5.461 5.846c3.473 3.244 5.679 7.513 6.516 13.049l7.91-1.196zm-8.992-17.724c-5.292-4.853-11.825-7.23-19.33-7.23v8c5.682 0 10.233 1.742 13.923 5.126l5.407-5.896zm148.275 55.368c5.387 0 10.255-1.126 14.443-3.558 4.201-2.44 7.481-6.057 9.885-10.659l-7.09-3.705c-1.8 3.445-4.087 5.862-6.813 7.445-2.74 1.592-6.161 2.477-10.425 2.477v8zm20.783-12.07h11.753v-8h-11.753v8zm8.016-5.425c-2.22 5.82-5.724 10.459-10.536 14.013l4.753 6.435c6.081-4.492 10.509-10.39 13.257-17.597l-7.474-2.85zM726.55 93.475c-4.49 3.376-10.505 5.232-18.379 5.232v8c9.134 0 16.974-2.167 23.186-6.837l-4.807-6.395zm-18.379 5.232c-9.811 0-17.511-3.217-23.465-9.522l-5.816 5.492c7.614 8.063 17.496 12.03 29.281 12.03v-8zm-23.463-9.52c-5.823-6.176-8.8-13.926-8.8-23.55h-8c0 11.45 3.616 21.23 10.98 29.038l5.82-5.488zm-8.8-23.55c0-9.78 2.873-17.536 8.412-23.593l-5.904-5.398c-7.074 7.736-10.508 17.508-10.508 28.992h8zm8.387-23.566c5.86-6.293 13.456-9.502 23.159-9.502v-8c-11.701 0-21.495 3.975-29.014 12.05l5.855 5.452zm23.159-9.502c9.703 0 17.299 3.209 23.159 9.502l5.855-5.452c-7.519-8.075-17.313-12.05-29.014-12.05v8zm23.134 9.475C736.127 48.101 739 55.857 739 65.638h8c0-11.484-3.434-21.257-10.508-28.993l-5.904 5.4zM739 65.638v4.31h8v-4.31h-8zm4 .31h-60.055v8H743v-8zm-64.029 4.46c.863 7.465 3.877 13.805 9.087 18.805l5.54-5.771c-3.772-3.62-6.014-8.2-6.68-13.953l-7.947.919zm9.086 18.804c5.417 5.205 12.279 7.725 20.257 7.725v-8c-6.163 0-10.96-1.886-14.715-5.494l-5.542 5.77zm19.397-54.873c-7.505 0-14.038 2.377-19.33 7.23l5.407 5.896c3.69-3.384 8.242-5.126 13.923-5.126v-8zm-19.357 7.255c-4.936 4.611-7.89 10.591-8.964 17.699l7.91 1.196c.837-5.536 3.043-9.805 6.515-13.049l-5.461-5.846zm-5.009 22.297h48.732v-8h-48.732v8zm52.687-4.598c-1.074-7.108-4.028-13.088-8.964-17.699l-5.461 5.846c3.472 3.244 5.678 7.513 6.515 13.049l7.91-1.196zm-8.991-17.724c-5.292-4.853-11.825-7.23-19.33-7.23v8c5.682 0 10.233 1.742 13.923 5.126l5.407-5.896zM604.71 104V41.644h-8V104h8zm-4-66.356h-14.62v8h14.62v-8zm-10.62 4V32.16h-8v9.483h8zm-4-5.483h14.62v-8h-14.62v8zm18.62-4V6.443h-8V32.16h8zm-4-21.718h10.75v-8h-10.75v8zm6.75-4V32.16h8V6.443h-8zm4 29.718h10.105v-8H611.46v8zm10.105 1.483H611.46v8h10.105v-8zm-14.105 4V104h8V41.644h-8zm4 58.356h-10.75v8h10.75v-8zm28.724 4V41.644h-8V104h8zm-4-66.356h-14.619v8h14.619v-8zm-14.619-1.483h14.619v-8h-14.619v8zm18.619-4V6.443h-8V32.16h8zm-4-21.718h10.75v-8h-10.75v8zm6.75-4V32.16h8V6.443h-8zm4 29.718h16.483v-8h-16.483v8zm12.483-4v9.483h8V32.16h-8zm4 5.483h-16.483v8h16.483v-8zm-20.483 4V104h8V41.644h-8zm4 58.356h-10.75v8h10.75v-8z" fill="#0E0C82" mask="url(#a)"/><path d="M2 19h100" stroke="#0E0C82" stroke-width="4" stroke-linecap="round" stroke-linejoin="round"/><path d="M19 104V21m16 81V19m17 83V19m17 85V21m16 83V21" stroke="#0E0C82" stroke-opacity=".3" stroke-width="4" stroke-linecap="round" stroke-linejoin="round"/><path d="M100 54H2m98 34H2m98-17H2m100-34H4m98-18H4M90.889 4H13.11C6.975 4 2 8.975 2 15.111V92.89C2 99.025 6.975 104 13.111 104H90.89C97.025 104 102 99.025 102 92.889V15.11C102 8.975 97.025 4 90.889 4z" stroke="#0E0C82" stroke-width="4" stroke-linecap="round" stroke-linejoin="round"/><path d="M102 19H2C2.564 8.355 4.928 4.465 15.5 4H87c11.532.28 14.875 3.506 15 15z" fill="#0E0C82" fill-opacity=".3"/></svg>