<svg xmlns="http://www.w3.org/2000/svg" viewBox="0 0 155 56" fill="none">
<rect width="100%" height="100%" fill="#a5968b" />
<path d="M43.8983 4.87186C42.9306 4.50935 40.4561 4.7535 38.7277 5.43414C38.0038 5.637 37.3788 6.09734 36.9696 6.72883C36.327 8.20847 40.2419 10.6647 41.8152 10.206C42.5539 9.9915 43.6471 8.3861 44.1272 6.98784C44.4523 5.98908 44.4966 5.10121 43.8983 4.87186Z" fill="#382923"/>
<path d="M35.0274 5.65596C34.4353 5.63922 33.8586 5.46292 33.3581 5.14552C33.0475 4.81098 32.6555 4.56284 32.2205 4.42539C31.7855 4.28794 31.3223 4.26583 30.8762 4.36127C30.0637 4.53883 29.6279 5.49319 30.1892 6.66951C30.3032 6.93169 30.3565 7.21636 30.345 7.50209C30.3335 7.78781 30.2575 8.06718 30.1228 8.3193C30.7556 7.68954 31.4596 7.13588 32.2206 6.66951C33.1012 6.195 34.0471 5.85346 35.0274 5.65596V5.65596Z" fill="#382923"/>
<path d="M45.5234 14.2231C45.6323 13.4253 45.6323 12.6164 45.5234 11.8187C45.5259 11.8015 45.5259 11.7841 45.5234 11.7669C45.5234 11.7669 45.5234 11.8335 45.5234 11.9593V11.6485C45.5234 11.6485 44.733 14.8224 43.1745 15.9617C42.8125 16.2281 42.5835 16.4056 42.4358 16.5239C42.5909 15.9321 43.1745 13.4315 42.3398 12.085C42.3398 12.085 41.9926 17.826 38.9346 18.1294C35.8765 18.4327 31.548 15.3032 30.3292 14.0455C30.3883 14.3045 30.4474 14.5486 30.5139 14.7854L30.4548 14.7114C30.4548 14.7114 30.5065 14.8298 30.5804 15.037C30.6818 15.3862 30.8026 15.7295 30.9423 16.0652C31.3707 17.4487 31.8287 19.5646 31.1418 20.8889C30.0707 22.99 27.7365 26.2231 27.9729 30.8396C27.9993 33.6542 28.6317 36.4301 29.8269 38.9776C30.7281 41.2563 30.9645 43.3573 30.7872 43.7198C30.6099 44.0823 30.8463 45.9394 26.599 42.7581C22.3517 39.5769 21.2068 36.2847 21.2068 36.2847C20.537 38.1248 20.2724 40.0883 20.4312 42.0405C20.7048 44.8391 21.3072 47.5955 22.2261 50.2525C22.2261 50.2525 16.6567 45.7396 16.3612 36.6989C16.0805 28.3907 20.9409 18.7804 21.7165 17.3008C21.8669 17.6339 22.0905 17.9287 22.3706 18.1632C22.6507 18.3976 22.9801 18.5656 23.3341 18.6546C23.3341 18.6546 21.1699 17.4635 22.7506 12.8322C24.3313 8.20092 27.5149 4.08018 30.7355 2.26761C32.0631 1.43916 33.5793 0.962397 35.1415 0.882159C36.7037 0.801921 38.2605 1.12085 39.6658 1.80892C38.4134 0.741095 36.8479 0.110723 35.206 0.0132822C33.5641 -0.0841586 31.9352 0.356556 30.5656 1.26878C28.041 2.72434 25.8751 4.72933 24.2279 7.13562C23.1964 7.23915 22.1571 7.23915 21.1256 7.13562C20.3869 7.13562 19.3084 7.6165 19.8033 9.35508C20.2982 11.0937 21.6426 12.8101 21.5318 13.794C21.4125 14.4055 21.3605 15.0282 21.3767 15.651C20.6897 16.7385 17.4766 21.9764 16.5015 26.1416C16.5015 26.1416 18.3334 7.76445 12.7048 4.6202C7.07626 1.47595 2.54829 3.98394 1.03405 8.12695C-2.20128 16.9678 2.59262 30.7878 9.35134 41.9443C16.1101 53.1009 22.529 55.1131 27.0791 55.3129C34.6873 55.6458 32.4713 53.996 35.2044 53.8332C37.9374 53.6705 37.5385 55.3129 42.0886 54.6767C45.4052 54.1958 45.974 51.9763 44.7183 50.9775C43.4625 49.9788 43.8836 47.5596 45.0802 42.403C46.2768 37.2464 44.5632 28.1688 43.3591 25.831C42.1551 23.4931 42.2881 22.302 43.566 20.0012C44.6258 18.2386 45.2935 16.2677 45.5234 14.2231ZM43.1375 16.9974C43.1375 16.9974 42.3398 19.72 41.7784 20.9556C41.2909 22.0505 41.1358 21.9616 40.7738 22.0874C40.949 21.5884 41.0849 21.0764 41.1801 20.556C41.3943 19.6534 41.1801 19.4167 41.1801 19.4167C40.9878 20.4553 40.6259 21.4551 40.109 22.376C39.6394 22.5658 39.1207 22.597 38.6317 22.4647C38.0334 22.2206 37.93 19.4093 37.93 19.2465C38.9176 19.3489 39.9149 19.1959 40.8266 18.8021C41.7383 18.4083 42.534 17.787 43.1375 16.9974V16.9974Z" fill="#382923"/>
<path d="M71.0587 17.3746H62.6158V46.8566H71.0587C72.3334 46.8546 73.5554 46.3466 74.4568 45.4439C75.3582 44.5411 75.8654 43.3172 75.8674 42.0404V22.1909C75.8654 20.9141 75.3582 19.6903 74.4568 18.7875C73.5554 17.8847 72.3334 17.3766 71.0587 17.3746V17.3746ZM70.0541 43.3129H66.5898V20.9184H70.0541C71.2729 20.9184 71.886 21.8136 71.886 23.1896V41.0342C71.886 42.4472 71.3542 43.3129 70.0541 43.3129V43.3129Z" fill="white"/>
<path d="M90.1832 30.366C90.6996 29.5847 90.9769 28.6692 90.9809 27.7322V22.1909C90.9848 20.92 90.4855 19.6995 89.5925 18.7967C88.6994 17.8939 87.4854 17.3825 86.2166 17.3746H78.6896C78.6896 17.3746 78.6896 18.4252 78.6896 21.2735C78.6896 27.9319 78.6896 46.8566 78.6896 46.8566H87.2802C88.5052 46.778 89.6549 46.2375 90.4978 45.3438C91.3408 44.4501 91.8143 43.2698 91.823 42.0404V33.7766C91.803 33.1248 91.6468 32.4845 91.3643 31.897C91.0818 31.3095 90.6795 30.788 90.1832 30.366V30.366ZM86.9995 26.726C86.9995 28.3018 86.4382 29.0047 85.1677 29.0047H82.6636V20.9184H85.1677C86.3126 20.9184 86.9995 21.858 86.9995 23.1896V26.726ZM82.6636 32.5484H85.7734C86.0595 32.542 86.3437 32.5963 86.6075 32.7075C86.8712 32.8188 87.1085 32.9847 87.3038 33.1942C87.499 33.4038 87.6479 33.6523 87.7406 33.9235C87.8333 34.1947 87.8677 34.4824 87.8416 34.7679V41.0195C87.8416 42.3881 87.066 43.2981 86.0097 43.2981H82.6636V32.5484Z" fill="#382923"/>
<path d="M101.764 24.9578H97.3325C96.381 24.9657 95.4714 25.3508 94.8027 26.0288C94.1341 26.7069 93.7609 27.6226 93.7648 28.5756V43.2833C93.7668 44.2304 94.1433 45.1382 94.8119 45.8079C95.4806 46.4776 96.3869 46.8546 97.3325 46.8566H105.413C105.413 46.8566 105.413 43.3203 102.754 43.3129H97.8348C97.8078 43.3162 97.7806 43.3162 97.7536 43.3129V43.3129V37.6532H105.413V28.583C105.413 28.1044 105.319 27.6306 105.135 27.1889C104.951 26.7471 104.682 26.3462 104.343 26.0091C104.004 25.6721 103.601 25.4057 103.159 25.2252C102.716 25.0448 102.242 24.9539 101.764 24.9578V24.9578ZM101.395 28.5756V34.102H97.7019V28.5756C97.6984 28.5674 97.6966 28.5586 97.6966 28.5497C97.6966 28.5408 97.6984 28.532 97.7019 28.5238H97.7536H101.321H101.373C101.383 28.54 101.39 28.5574 101.395 28.5756V28.5756Z" fill="#382923"/>
<path d="M115.268 24.9577H110.585C107.866 24.9577 107.829 28.5015 107.829 28.5015H114.81H114.854C114.854 28.5015 114.854 28.5015 114.854 28.5607V32.0008H110.784C109.837 32.0028 108.93 32.3809 108.261 33.0522C107.592 33.7235 107.216 34.6332 107.216 35.5816V43.2683C107.218 44.2154 107.595 45.1233 108.263 45.793C108.932 46.4627 109.838 46.8398 110.784 46.8417H118.828V28.5607C118.824 27.6126 118.449 26.704 117.783 26.0302C117.117 25.3564 116.214 24.9713 115.268 24.9577V24.9577ZM114.898 35.5668V43.3128H111.323H111.235V35.6334H111.294L114.898 35.5668Z" fill="#382923"/>
<path d="M125.586 38.1192L123.119 24.9577H119.3L123.363 46.8565H127.721L131.776 24.9577H128.083L125.586 38.1192Z" fill="#382923"/>
<path d="M153.072 24.9581H152.333C151.189 24.9581 150.206 24.9581 149.733 24.9581C148.805 25.0033 147.929 25.4025 147.285 26.0738C146.641 26.745 146.277 27.6375 146.269 28.5684V46.8495H150.206C150.206 46.8495 150.258 34.7977 150.206 29.7817C150.206 28.4574 150.206 28.4796 151.181 28.4574L152.865 28.3983C155 28.3983 155 24.9507 155 24.9507L153.072 24.9581Z" fill="#382923"/>
<path d="M111.198 42.2032V43.3204H112.313C112.017 43.3204 111.733 43.2027 111.524 42.9932C111.315 42.7837 111.198 42.4995 111.198 42.2032V42.2032Z" fill="#382923"/>
<path d="M97.6874 42.2032V43.3204H98.8028C98.5076 43.3184 98.225 43.2001 98.0163 42.991C97.8075 42.7819 97.6894 42.4989 97.6874 42.2032V42.2032Z" fill="#382923"/>
<path d="M112.313 35.5449H111.198V36.662C111.197 36.515 111.225 36.3693 111.28 36.2333C111.336 36.0973 111.418 35.9738 111.522 35.8699C111.626 35.766 111.749 35.6837 111.885 35.6279C112.021 35.5721 112.166 35.5439 112.313 35.5449V35.5449Z" fill="#382923"/>
<path d="M98.8028 28.4868H97.6874V29.6039C97.6894 29.3082 97.8075 29.0252 98.0163 28.8161C98.225 28.607 98.5076 28.4887 98.8028 28.4868Z" fill="#382923"/>
<path d="M101.395 29.6039V28.4868H100.28C100.575 28.4887 100.858 28.607 101.066 28.8161C101.275 29.0252 101.393 29.3082 101.395 29.6039Z" fill="#382923"/>
<path d="M114.906 29.6039V28.4868H113.79C114.086 28.4887 114.368 28.607 114.577 28.8161C114.786 29.0252 114.904 29.3082 114.906 29.6039Z" fill="#382923"/>
<path d="M140.67 24.9577H136.238C135.766 24.9607 135.3 25.0566 134.866 25.24C134.431 25.4233 134.037 25.6906 133.706 26.0266C133.375 26.3625 133.113 26.7605 132.935 27.1979C132.757 27.6352 132.667 28.1033 132.67 28.5755V43.2832C132.67 44.2309 133.046 45.1398 133.715 45.8099C134.384 46.48 135.292 46.8565 136.238 46.8565H144.282C144.282 46.8565 144.282 43.3202 141.63 43.3128H136.711H136.622V37.6531H144.297V28.5829C144.298 28.1059 144.204 27.6335 144.022 27.1927C143.84 26.752 143.573 26.3517 143.236 26.0147C142.899 25.6778 142.499 25.411 142.058 25.2296C141.618 25.0482 141.146 24.9558 140.67 24.9577V24.9577ZM140.293 28.5755V34.102H136.6V28.5755C136.594 28.5588 136.594 28.5404 136.6 28.5237H136.651H140.219H140.271C140.281 28.5399 140.288 28.5573 140.293 28.5755V28.5755Z" fill="#382923"/>
<path d="M136.593 42.2032V43.3204H137.708C137.412 43.3204 137.129 43.2027 136.919 42.9932C136.71 42.7837 136.593 42.4995 136.593 42.2032V42.2032Z" fill="#382923"/>
<path d="M137.708 28.4868H136.593V29.6039C136.593 29.3076 136.71 29.0235 136.919 28.814C137.129 28.6045 137.412 28.4868 137.708 28.4868V28.4868Z" fill="#382923"/>
<path d="M150.804 28.4572H149.689V29.5743C149.691 29.2786 149.809 28.9956 150.018 28.7865C150.227 28.5775 150.509 28.4591 150.804 28.4572Z" fill="#382923"/>
<path d="M140.293 29.6039V28.4868H139.185C139.48 28.4887 139.762 28.6073 139.969 28.8166C140.177 29.0259 140.293 29.3089 140.293 29.6039V29.6039Z" fill="#382923"/>
</svg>