<svg xmlns="http://www.w3.org/2000/svg" viewBox="0 0 266 69" fill-rule="evenodd" clip-rule="evenodd" stroke-linejoin="round" stroke-miterlimit="2"><path d="M73.79 15.23c-6.47 0-12.43 3.64-18.19 10-5.66-6.46-11.72-10-18.49-10-11.21 0-19.39 8-19.39 18.77s8.18 18.67 19.39 18.67c6.89 0 12.23-3.23 18.19-9.67 5.76 6.46 11.62 9.69 18.49 9.69C85 52.67 93.18 44.8 93.18 34S85 15.23 73.79 15.23zm-36.6 26.14c-4.75 0-7.58-3.13-7.58-7.27s2.83-7.36 7.58-7.36c4 0 7.27 3.22 10.81 7.56-3.34 4.04-6.87 7.07-10.81 7.07zm36.26 0c-3.94 0-7.27-3.13-10.81-7.27 3.64-4.34 6.77-7.36 10.81-7.36C78.2 26.74 81 30 81 34.1c0 4.1-2.8 7.27-7.55 7.27z" fill="rgb(72,72,72)" fill-rule="nonzero"/><path d="M63.74 50l7.54-9c-3-.9-5.77-3.6-8.64-6.95L55.3 43a32.982 32.982 0 0 0 8.44 7z" fill="rgb(32,167,201)" fill-rule="nonzero"/><path d="M116.72 40.39a3 3 0 0 0-1.06-2.39 10.778 10.778 0 0 0-3.73-1.72 20.995 20.995 0 0 1-7-3.18 6.004 6.004 0 0 1-2.38-5 6.238 6.238 0 0 1 2.73-5.22 11.274 11.274 0 0 1 7-2 10.462 10.462 0 0 1 7 2.28 6.834 6.834 0 0 1 2.6 5.62v.1h-5.06a3.792 3.792 0 0 0-1.21-2.92 4.8 4.8 0 0 0-3.38-1.11 5.08 5.08 0 0 0-3.24.92 3.001 3.001 0 0 0-1.14 2.38c.017.84.448 1.619 1.15 2.08a16.818 16.818 0 0 0 4.2 1.77 16.37 16.37 0 0 1 6.52 3.16 6.571 6.571 0 0 1 2.22 5.17 6.187 6.187 0 0 1-2.64 5.27 11.464 11.464 0 0 1-7 1.93 12.68 12.68 0 0 1-7.41-2.19 6.847 6.847 0 0 1-3.08-6.14v-.11H107a4.004 4.004 0 0 0 1.42 3.41 6.433 6.433 0 0 0 4 1.08 5.165 5.165 0 0 0 3.25-.88 2.784 2.784 0 0 0 1.05-2.31zM137 44.4a6.542 6.542 0 0 1-2.27 2.34 6.715 6.715 0 0 1-8-1.14c-1.147-1.333-1.72-3.36-1.72-6.08V27.85h5.2v11.73a5.091 5.091 0 0 0 .71 3c.514.628 1.3.971 2.11.92a5.352 5.352 0 0 0 2.15-.4 3.628 3.628 0 0 0 1.46-1.2V27.85h5.22v19.33h-4.45L137 44.4zm25.87-6.35a11.058 11.058 0 0 1-2 6.9 6.566 6.566 0 0 1-5.54 2.61 6.299 6.299 0 0 1-2.7-.56 5.63 5.63 0 0 1-2-1.66v9.28h-5.2V27.85h4.7l.31 2.28a6.257 6.257 0 0 1 2.06-1.95 5.62 5.62 0 0 1 2.82-.69 6.436 6.436 0 0 1 5.57 2.81 12.469 12.469 0 0 1 2 7.38l-.02.37zm-5.22-.4a9.492 9.492 0 0 0-.91-4.44 3.004 3.004 0 0 0-2.79-1.7 3.942 3.942 0 0 0-2 .48 3.58 3.58 0 0 0-1.32 1.38v8.49c.312.534.77.968 1.32 1.25a4.338 4.338 0 0 0 2 .43 3.003 3.003 0 0 0 2.78-1.49 7.832 7.832 0 0 0 .89-4l.03-.4zm16.56 9.91a8.717 8.717 0 0 1-6.69-2.68 9.596 9.596 0 0 1-2.5-6.81v-.71a10.576 10.576 0 0 1 2.37-7.1c3.306-3.503 8.9-3.688 12.43-.41a9.082 9.082 0 0 1 2.18 6.38v2.84h-11.57v.11a5.001 5.001 0 0 0 1.28 3.13 4.001 4.001 0 0 0 3.08 1.23c.972.022 1.942-.096 2.88-.35a13.26 13.26 0 0 0 2.5-1.1l1.41 3.23a9.608 9.608 0 0 1-3.09 1.6 13.281 13.281 0 0 1-4.28.64zm-.47-16a2.733 2.733 0 0 0-2.29 1.11 5.756 5.756 0 0 0-1 2.91l.05.09h6.4v-.46a4.194 4.194 0 0 0-.78-2.66 2.804 2.804 0 0 0-2.38-1.04v.05zm21.56.77h-1.92a3.488 3.488 0 0 0-1.91.48 3.06 3.06 0 0 0-1.14 1.36v13.01h-5.2V27.85H190l.23 2.86a6.085 6.085 0 0 1 1.77-2.37 3.923 3.923 0 0 1 2.5-.85c.241-.002.482.018.72.06l.67.15-.59 4.63zm13.02 9.53a1.821 1.821 0 0 0-.83-1.49 8.554 8.554 0 0 0-3.08-1.1 12.463 12.463 0 0 1-5.17-2.07 4.463 4.463 0 0 1-1.75-3.72 5.335 5.335 0 0 1 2.1-4.25 8.542 8.542 0 0 1 5.62-1.74 9.263 9.263 0 0 1 5.89 1.73 5.136 5.136 0 0 1 2.1 4.38v.11h-5a2.57 2.57 0 0 0-.74-1.9 3.001 3.001 0 0 0-2.18-.73c-.719-.04-1.43.18-2 .62a1.94 1.94 0 0 0-.72 1.54 1.751 1.751 0 0 0 .76 1.47 8.292 8.292 0 0 0 3.08 1c1.908.281 3.726 1 5.31 2.1a4.614 4.614 0 0 1 1.73 3.81 5.105 5.105 0 0 1-2.23 4.27 9.713 9.713 0 0 1-5.9 1.65 8.937 8.937 0 0 1-6.1-2 5.463 5.463 0 0 1-2.21-4.4v-.1h4.77a2.69 2.69 0 0 0 1 2.25 4.226 4.226 0 0 0 2.52.7 3.612 3.612 0 0 0 2.2-.58c.522-.341.836-.926.83-1.55zm16.54 5.7a8.694 8.694 0 0 1-6.68-2.68 9.596 9.596 0 0 1-2.5-6.81v-.71a10.622 10.622 0 0 1 2.36-7.1c3.306-3.503 8.9-3.688 12.43-.41a9.002 9.002 0 0 1 2.17 6.38v2.84h-11.55v.11a5 5 0 0 0 1.27 3.13 4 4 0 0 0 3.09 1.23c.969.022 1.935-.096 2.87-.35a13.067 13.067 0 0 0 2.51-1.1l1.41 3.23a9.71 9.71 0 0 1-3.09 1.6 13.341 13.341 0 0 1-4.29.64zm-.46-16a2.711 2.711 0 0 0-2.29 1.11 5.768 5.768 0 0 0-1 2.91l.06.09h6.4v-.46a4.194 4.194 0 0 0-.78-2.66 2.803 2.803 0 0 0-2.39-1.04v.05zm17.95-8.45v4.74h3.26v3.66h-3.26v9.85a2.28 2.28 0 0 0 .47 1.61c.33.329.784.504 1.25.48a4.56 4.56 0 0 0 .7-.05c.233-.037.463-.087.69-.15l.45 3.77c-.502.175-1.017.312-1.54.41a10.22 10.22 0 0 1-1.62.13 5.561 5.561 0 0 1-4.16-1.48 6.52 6.52 0 0 1-1.46-4.7v-9.87h-2.82v-3.66h2.82v-4.74h5.22z" fill="rgb(72,72,72)" fill-rule="nonzero"/><path d="M55.6 25.22a33.935 33.935 0 0 0-8.39-7.16l-7.55 9.1c2.87 1 5.41 3.58 8.11 6.87l.3.21 7.53-9.02z" fill="rgb(32,167,201)" fill-rule="nonzero"/></svg>