<svg height="120" viewBox="0 0 120 120" width="120" xmlns="http://www.w3.org/2000/svg" xmlns:xlink="http://www.w3.org/1999/xlink"><defs><linearGradient id="a" x1="50%" x2="50%" y1="0%" y2="100%"><stop offset="0" stop-color="#f4d87e"/><stop offset="1" stop-color="#f5c52c"/></linearGradient><filter id="b" height="146.7%" width="110.2%" x="-5.1%" y="-16.7%"><feOffset dy="2" in="SourceAlpha" result="shadowOffsetOuter1"/><feGaussianBlur in="shadowOffsetOuter1" result="shadowBlurOuter1" stdDeviation="2"/><feColorMatrix in="shadowBlurOuter1" values="0 0 0 0 0 0 0 0 0 0 0 0 0 0 0 0 0 0 0.5 0"/></filter><rect id="c" height="120" rx="28" width="120"/><path id="d" d="m-9 0h137v30h-137z"/><mask id="e" fill="#fff"><use fill="#fff" fill-rule="evenodd" xlink:href="#c"/></mask></defs><g fill="none" fill-rule="evenodd"><use fill="#fff" xlink:href="#c"/><g mask="url(#e)"><use fill="#000" filter="url(#b)" xlink:href="#d"/><use fill="url(#a)" xlink:href="#d"/></g><path d="m0 59h120v2h-120zm0 30h120v2h-120z" fill="#c7c5c9" mask="url(#e)"/><g fill="#c2c0c4" mask="url(#e)"><g transform="translate(0 35)"><circle cx="11.5" cy="1.5" r="1.5"/><circle cx="16.5" cy="1.5" r="1.5"/><circle cx="21.5" cy="1.5" r="1.5"/><circle cx="26.5" cy="1.5" r="1.5"/><circle cx="31.5" cy="1.5" r="1.5"/><circle cx="36.5" cy="1.5" r="1.5"/><circle cx="41.5" cy="1.5" r="1.5"/><circle cx="46.5" cy="1.5" r="1.5"/><circle cx="51.5" cy="1.5" r="1.5"/><circle cx="56.5" cy="1.5" r="1.5"/><circle cx="61.5" cy="1.5" r="1.5"/><circle cx="66.5" cy="1.5" r="1.5"/><circle cx="71.5" cy="1.5" r="1.5"/><circle cx="76.5" cy="1.5" r="1.5"/><circle cx="81.5" cy="1.5" r="1.5"/><circle cx="86.5" cy="1.5" r="1.5"/><circle cx="91.5" cy="1.5" r="1.5"/><circle cx="96.5" cy="1.5" r="1.5"/><circle cx="101.5" cy="1.5" r="1.5"/><circle cx="106.5" cy="1.5" r="1.5"/><circle cx="111.5" cy="1.5" r="1.5"/><circle cx="116.5" cy="1.5" r="1.5"/><circle cx="6.5" cy="1.5" r="1.5"/><circle cx="1.5" cy="1.5" r="1.5"/></g></g></g></svg>