<svg width="256" height="256" xmlns="http://www.w3.org/2000/svg" preserveAspectRatio="xMidYMid"><defs><linearGradient x1="0%" y1="100%" y2="0%" id="a"><stop stop-color="#2E27AD" offset="0%"/><stop stop-color="#527FFF" offset="100%"/></linearGradient></defs><path fill="url(#a)" d="M0 0H256V256H0z"/><path d="M144.292 57.744h-9.626v-6.457h9.626V41.6h6.417v9.687h9.625v6.457h-9.625v9.687h-6.417v-9.687zm38.502 35.518h-9.625v-6.458h9.625v-9.686h6.418v9.686h9.625v6.458h-9.625v9.687h-6.418v-9.687zm-16.71 102.046c-6.128-15.57-20.272-29.803-35.75-35.973 15.478-6.167 29.622-20.4 35.75-35.973 6.129 15.573 20.272 29.806 35.747 35.973-15.475 6.17-29.618 20.403-35.747 35.973zm51.507-39.202c-22.569 0-48.298-25.893-48.298-48.605a3.218 3.218 0 0 0-3.209-3.228 3.218 3.218 0 0 0-3.208 3.228c0 22.712-25.733 48.605-48.302 48.605-1.771 0-3.209 1.446-3.209 3.229a3.218 3.218 0 0 0 3.209 3.229c22.569 0 48.302 25.892 48.302 48.607a3.218 3.218 0 0 0 3.208 3.229 3.218 3.218 0 0 0 3.209-3.229c0-22.715 25.73-48.607 48.298-48.607a3.218 3.218 0 0 0 3.209-3.23c0-1.782-1.437-3.228-3.209-3.228zM41.617 92.49c9.344 6.84 27.498 10.459 44.92 10.459 17.423 0 35.577-3.62 44.92-10.459v30.927c-4.623 6.186-21.626 12.282-44.278 12.282-26.076 0-45.562-8.201-45.562-15.534V92.49zm44.92-25.059c27.831 0 44.92 8.463 44.92 14.53s-17.089 14.53-44.92 14.53c-27.831 0-44.92-8.463-44.92-14.53s17.089-14.53 44.92-14.53zm44.92 121.183c0 7.443-19.216 15.77-44.936 15.77-25.7 0-44.904-8.327-44.904-15.77v-20.632c9.459 7.22 27.976 11.042 45.745 11.042 12.356 0 24.305-1.756 33.632-4.946l-2.06-6.116c-8.682 2.968-19.896 4.605-31.572 4.605-26.182 0-45.745-8.202-45.745-15.535v-25.898c9.433 7.206 27.87 11.023 45.562 11.023 18.956 0 35.214-3.93 44.278-10.152v9.69h6.417V81.961c0-13.632-26.448-20.988-51.337-20.988-23.875 0-49.123 6.787-51.138 19.374H35.2v108.267c0 14.436 26.442 22.228 51.321 22.228 24.895 0 51.353-7.792 51.353-22.228v-11.401h-6.417v11.401z" fill="#FFF"/></svg>