<svg xmlns="http://www.w3.org/2000/svg" viewBox="0 0 527.1 500">
    <path fill="#0066DA"
        d="M410.4 58.3L368.8 81.2 348.2 120.6 368.8 168.8 407.8 211 450 187.5 475.9 142.8 450 87.5z" />
    <path fill="#2684FC"
        d="M249.3 219.4l98.9-98.9c29.1 22.1 50.5 53.8 59.6 90.4L272.1 346.7c-12.2 12.2-32 12.2-44.2 0l-91.5-91.5c-9.8-9.8-9.8-25.6 0-35.3l39-39c9.8-9.8 25.6-9.8 35.3 0l38.6 38.5zM519.8 63.6l-39.7-39.7c-9.7-9.7-25.6-9.7-35.3 0l-34.4 34.4c27.5 23 49.9 51.8 65.5 84.5l43.9-43.9c9.8-9.7 9.8-25.6 0-35.3zM412.5 250c0 89.8-72.8 162.5-162.5 162.5S87.5 339.8 87.5 250 160.2 87.5 250 87.5c36.9 0 70.9 12.3 98.2 33.1l62.2-62.2C367 21.9 311.1 0 250 0 111.9 0 0 111.9 0 250s111.9 250 250 250 250-111.9 250-250c0-38.3-8.7-74.7-24.1-107.2L407.8 211c3 12.5 4.7 25.6 4.7 39z" />
</svg>