<svg clip-rule="evenodd" fill-rule="evenodd" stroke-linejoin="round" viewBox="0 0 180 271" xmlns="http://www.w3.org/2000/svg"><g fill="#d1d3d4" stroke="#000" stroke-width="4.79" transform="translate(18.782 3.414)"><path d="m31.758 46.916c.74-23.487-7.172-37.334-29.917-46.481-6.465 22.614 20.225 43.465 29.917 46.481z" transform="translate(24)"/><path d="m117.441 86.72c.74-19.286-4.131-27.07-7.787-32.636-3.709-5.192-12.609-13.352-23.544-13.694-10.341-.324-12.828 5.392-22.368 5.737-1.564-17.372 11.547-26.905 11.547-26.905s-3.585-5.067-6.551-6.305c-4.266 3.791-16.008 16.436-13.291 32.708-8.778-1.678-14.974-6.702-24.195-4.888-12.562 2.472-22.917 10.067-28.819 26.733-5.901 16.667 2.083 36.111 3.819 41.664 1.737 5.558 14.584 29.164 24.653 32.638 10.067 3.475 10.07 1.909 15.452-.173 5.383-2.083 13.54-5.902 25.522-1.561 11.975 4.339 13.537 5.379 21 .519 7.469-4.859 17.188-19.962 19.443-24.303 2.257-4.339 3.473-6.597 4.17-8.853 7.256-3.621.283-3.397.949-20.681z"/></g><g transform="translate(9.782 115.414)"><path d="m145.932 115.67c4.785.017 9.38-1.871 12.769-5.248 3.39-3.377 5.295-7.965 5.295-12.75.002-18.273.002-46.51.002-64.833 0-4.774-1.896-9.352-5.272-12.728s-7.954-5.272-12.728-5.272h-14.838c-2.209 0-4-1.791-4-4v-9.43h-117.03s.258 120.539.295 138.213c.003 1.363.7 2.632 1.85 3.365 5.212 3.018 21.921 8.75 57.004 8.75 35.825 0 51.839-7.674 56.424-11.139.911-.756 1.438-1.878 1.438-3.062.019-3.825.019-12.688.019-17.924 0-1.075.433-2.105 1.201-2.857.768-.753 1.807-1.164 2.882-1.142 4.401.062 9.674.071 14.689.057zm-18.772-79.806c0-1.326.527-2.598 1.464-3.536.938-.937 2.21-1.464 3.536-1.464h12.738c1.326 0 2.598.527 3.536 1.464.937.938 1.464 2.21 1.464 3.536v58.185c0 1.326-.527 2.598-1.464 3.536-.938.937-2.21 1.464-3.536 1.464h-12.738c-1.326 0-2.598-.527-3.536-1.464-.937-.938-1.464-2.21-1.464-3.536z" fill="#fff" fill-rule="nonzero" stroke="#000" stroke-width="4.79"/><path d="m21.667.249v123.986c0 1.431.764 2.753 2.003 3.467 5.061 2.412 19.743 8.169 45.484 8.169 25.912 0 40.158-6.995 44.928-9.878 1.139-.734 1.827-1.997 1.827-3.351.011-16.441.011-122.393.011-122.393z" fill="#fbb040"/><path d="m35.521.249v112.816" fill="none" stroke="#ffdb96" stroke-linecap="round" stroke-linejoin="miter" stroke-width="11.96" transform="matrix(1 0 0 .849312 0 21.0375)"/></g><path d="m94.773 139.692c0-2-1.177-4.388-3.11-5.587-3.145-1.903-5.604-4.822-6.942-8.3-25.591.861-48.949-3.633-60.716-6.806-3.021-.856-6.081-1.567-9.171-2.13-7.043-1.397-12.396-7.582-12.396-15.018 0-8.185 6.494-14.836 14.608-15.127 1.565-8.657 9.121-15.229 18.229-15.229 10.242 0 18.544 8.304 18.544 18.545 0 2.155-.389 4.218-1.064 6.144l.055.009c2.287-7.153 8.983-12.336 16.896-12.336 7.862 0 14.522 5.122 16.848 12.208-.067-.639-.101-1.289-.101-1.947 0-10.652 8.634-19.286 19.284-19.286 8.622 0 15.919 5.659 18.388 13.462l1.681-.438c2.198-1.239 4.729-1.955 7.432-1.955 8.369 0 15.154 6.785 15.151 15.152 0 7.666-5.691 14.001-13.079 15.012-1.673.237-3.314.663-4.891 1.27-4.391 1.655-8.881 3.027-13.417 4.159-.226 2.236-.892 4.342-1.909 6.231-1.84 3.452-2.665 7.355-2.38 11.257-.002.236.007 1.472.007 1.71 0 4.956-4.016 7.972-8.976 7.972-4.953 0-8.971-4.015-8.971-8.972z" fill="#fff" stroke="#000" stroke-linecap="round" stroke-width="4.79" transform="translate(3.782 1.414)"/></svg>