<svg height="1024" viewBox="0 0 1024 1024" width="1024" xmlns="http://www.w3.org/2000/svg" xmlns:xlink="http://www.w3.org/1999/xlink"><linearGradient id="a"><stop offset="0" stop-color="#21facf"/><stop offset="1" stop-color="#0970ef"/></linearGradient><linearGradient id="b" gradientUnits="userSpaceOnUse" x1="62.7" x2="192.836" y1="190.136" y2="39.756"><stop offset="0" stop-color="#72004e"/><stop offset="1" stop-color="#0015b1"/></linearGradient><linearGradient id="c" gradientUnits="userSpaceOnUse" x1="39.468" x2="154.99" xlink:href="#a" y1="204.22" y2="124.47"/><path d="m105.5 24.43c-48.394-.000015-87.625 39.231-87.625 87.625.0174 20.443 7.1818 40.236 20.253 55.954.2523-.42224.53629-.82423.85783-1.2061 4.892-5.8104 10.427-10.214 18.946-19.252 3.7871-4.0176 6.3412 15.63 7.6435 14.309 1.3243-1.3439.1473-19.001 3.5062-24.674 6.0563-10.228 10.733-18.067 22.336-30.607 2.8443-3.0741 5.5333 11.223 6.8063 9.2361 1.1421-1.7823-.26941-18.641 1.5663-23.773 4.8819-13.647 3.3631-13.21 15.582-31.378 2.098-3.1195 6.496 7.9402 7.2151 6.3268.70126-1.5734-.84173-11.131-.67179-15.805.37161-3.1498 3.6036-13.059 7.7055-23.367-7.8432-2.2472-15.962-3.3881-24.12-3.3895zm43.142 11.356c5.5662 61.595-18.426 120.7-62.796 161.65 6.446 1.4857 13.04 2.2367 19.655 2.2386 48.394.00001 87.625-39.231 87.625-87.625-.00031-31.581-16.995-60.719-44.484-76.268z" fill="url(#b)" transform="matrix(4.946 0 0 4.946 -9.798 -9.7983)"/><path d="m148.16 59.393c-7.7098 9.3985-19.951 42.888-20.696 49.204-.16994 4.6737 1.3731 14.231.67182 15.805-.71909 1.6134-5.117-9.4461-7.2151-6.3266-12.219 18.168-10.7 17.731-15.582 31.378-1.8357 5.1315-.42447 21.99-1.5666 23.773-1.273 1.9866-3.962-12.31-6.8063-9.236-11.603 12.54-16.279 20.379-22.336 30.607-3.3589 5.6725-2.1817 23.33-3.506 24.674-1.3023 1.3215-3.8566-18.326-7.6437-14.309-8.5193 9.038-14.054 13.441-18.946 19.252-5.1981 6.1739-.78251 17.584-5.0672 35.383l.1448.22073c77.447-50.308 101.52-127.16 107.61-181.19-.68051 63.93-29.41 142.78-105.33 184.65l.1127.17141c20.241-2.181 22.307 10.458 44.562-4.2837 55.792-48.277 81.856-124.29 61.593-199.78z" fill="url(#c)" transform="matrix(4.946 0 0 4.946 -37.2473108 -293.758152)"/></svg>