<svg viewBox="0 0 15 15" xmlns="http://www.w3.org/2000/svg">
    <path fill="currentColor" fill-rule="evenodd"
        d="M0 1.5A.5.5 0 0 1 .5 1h2a.5.5 0 0 1 0 1h-2a.5.5 0 0 1-.5-.5m4 0a.5.5 0 0 1 .5-.5h10a.5.5 0 0 1 0 1h-10a.5.5 0 0 1-.5-.5m0 3a.5.5 0 0 1 .5-.5h7a.5.5 0 0 1 0 1h-7a.5.5 0 0 1-.5-.5m-4 3A.5.5 0 0 1 .5 7h2a.5.5 0 0 1 0 1h-2a.5.5 0 0 1-.5-.5m4 0a.5.5 0 0 1 .5-.5h10a.5.5 0 0 1 0 1h-10a.5.5 0 0 1-.5-.5m0 3a.5.5 0 0 1 .5-.5h7a.5.5 0 0 1 0 1h-7a.5.5 0 0 1-.5-.5m-4 3a.5.5 0 0 1 .5-.5h2a.5.5 0 0 1 0 1h-2a.5.5 0 0 1-.5-.5m4 0a.5.5 0 0 1 .5-.5h10a.5.5 0 0 1 0 1h-10a.5.5 0 0 1-.5-.5"
        clip-rule="evenodd" />
</svg>