<svg width="256" height="256" fill="none" xmlns="http://www.w3.org/2000/svg"><g clip-path="url(#clip0_1743_2)"><path d="M64.449 196.015H54.91c-.336-16.154-1.265-31.344-2.785-45.574h-.084L37.52 196.015h-7.262l-14.434-45.574h-.085c-1.071 13.666-1.745 28.856-2.026 45.574H5.017c.562-20.332 1.968-39.391 4.219-57.183h11.822l13.76 42.017h.085l13.845-42.017h11.31c2.478 20.837 3.94 39.903 4.39 57.183m41.374-42.189c-3.884 21.147-9.007 36.515-15.366 46.101-4.955 7.387-10.382 11.08-16.293 11.08-1.576 0-3.519-.476-5.824-1.422v-5.098c1.126.166 2.448.254 3.968.254 2.757 0 4.98-.765 6.67-2.291 2.025-1.86 3.038-3.95 3.038-6.267 0-1.582-.79-4.828-2.364-9.74l-10.467-32.617h9.37l7.512 24.395c1.688 5.538 2.392 9.405 2.11 11.609 4.11-11.013 6.98-23.014 8.613-36.004h9.033" fill="#00758F"/><path d="M147.603 180.165c0 4.849-1.775 8.831-5.315 11.946-3.542 3.101-8.302 4.656-14.261 4.656-5.575 0-10.977-1.79-16.21-5.34l2.448-4.912c4.504 2.259 8.579 3.387 12.238 3.387 3.432 0 6.118-.766 8.062-2.281 1.939-1.525 3.101-3.652 3.101-6.35 0-3.395-2.36-6.298-6.69-8.732-3.997-2.201-11.985-6.797-11.985-6.797-4.328-3.168-6.498-6.567-6.498-12.168 0-4.632 1.618-8.376 4.85-11.225 3.24-2.854 7.419-4.282 12.537-4.282 5.291 0 10.101 1.417 14.434 4.24l-2.201 4.908c-3.707-1.577-7.363-2.369-10.967-2.369-2.925 0-5.179.704-6.75 2.122-1.58 1.405-2.557 3.214-2.557 5.418 0 3.386 2.411 6.324 6.863 8.805 4.047 2.203 12.231 6.887 12.231 6.887 4.452 3.162 6.67 6.534 6.67 12.087z" fill="#F29111"/><path fill-rule="evenodd" clip-rule="evenodd" d="M164.654 184.576c-2.308-3.727-3.465-9.709-3.465-17.957 0-14.398 4.364-21.602 13.086-21.602 4.561 0 7.908 1.723 10.048 5.165 2.306 3.729 3.462 9.659 3.462 17.791 0 14.515-4.364 21.775-13.086 21.775-4.559 0-7.908-1.722-10.045-5.171m33.937 12.818l-10.475-5.183c.933-.768 1.818-1.596 2.62-2.554 4.447-5.247 6.673-13.012 6.673-23.292 0-18.918-7.401-28.382-22.202-28.382-7.261 0-12.919 2.399-16.97 7.204-4.449 5.252-6.671 12.988-6.671 23.21 0 10.052 1.969 17.425 5.909 22.109 3.589 4.234 9.018 6.354 16.285 6.354 2.712 0 5.199-.335 7.461-1.005l13.64 7.965 3.719-6.427" fill="#F29111"/><path d="M232.784 196.015h-27.097v-57.183h9.118v50.149h17.979v7.034m6.502-.006h1.511v-5.818h1.977v-1.188h-5.542v1.188h2.054v5.818zm11.497 0h1.424v-7.006h-2.142l-1.743 4.776-1.898-4.776h-2.064v7.006h1.348v-5.332h.076l1.988 5.332h1.027l1.984-5.332v5.332z" fill="#F29111"/><path fill-rule="evenodd" clip-rule="evenodd" d="M244.23 119.679c-5.511-.139-9.779.413-13.358 1.934-1.033.414-2.684.414-2.825 1.727.555.552.621 1.45 1.106 2.213.824 1.382 2.267 3.244 3.578 4.214 1.446 1.106 2.892 2.207 4.409 3.175 2.684 1.665 5.714 2.628 8.327 4.287 1.52.966 3.029 2.208 4.549 3.248.754.552 1.233 1.452 2.201 1.794v-.21c-.486-.62-.621-1.518-1.101-2.213-.687-.686-1.377-1.311-2.067-1.999-1.998-2.694-4.479-5.041-7.158-6.976-2.206-1.524-7.028-3.597-7.92-6.146l-.139-.141c1.515-.14 3.308-.694 4.753-1.113 2.338-.62 4.472-.48 6.882-1.1 1.103-.278 2.205-.626 3.312-.966v-.626c-1.247-1.241-2.138-2.901-3.446-4.075-3.509-3.039-7.369-6.007-11.362-8.499-2.137-1.382-4.891-2.276-7.164-3.453-.823-.415-2.198-.62-2.682-1.315-1.24-1.519-1.932-3.52-2.825-5.32-1.995-3.795-3.926-8.008-5.645-12.022-1.238-2.693-1.996-5.385-3.511-7.874-7.096-11.748-14.805-18.86-26.648-25.84-2.548-1.453-5.577-2.074-8.81-2.834-1.725-.073-3.444-.207-5.166-.275-1.103-.486-2.206-1.8-3.168-2.42-3.927-2.487-14.044-7.875-16.938-.76-1.86 4.494 2.754 8.914 4.338 11.194 1.17 1.587 2.687 3.387 3.509 5.18.483 1.176.621 2.421 1.105 3.663 1.1 3.04 2.132 6.426 3.581 9.26.755 1.451 1.58 2.973 2.544 4.28.556.764 1.516 1.105 1.724 2.353-.961 1.38-1.036 3.453-1.586 5.181-2.478 7.808-1.516 17.48 1.998 23.214 1.099 1.727 3.719 5.528 7.23 4.074 3.099-1.242 2.41-5.18 3.305-8.632.206-.835.067-1.383.479-1.935v.139c.964 1.932 1.93 3.793 2.825 5.734 2.137 3.382 5.852 6.907 8.953 9.253 1.648 1.249 2.957 3.387 5.023 4.149v-.208h-.135c-.415-.62-1.033-.899-1.585-1.38-1.239-1.245-2.613-2.765-3.581-4.146-2.891-3.868-5.442-8.154-7.709-12.575-1.104-2.147-2.067-4.494-2.963-6.635-.411-.825-.411-2.072-1.101-2.486-1.036 1.519-2.547 2.834-3.303 4.693-1.31 2.975-1.446 6.636-1.932 10.438-.273.072-.135 0-.273.137-2.201-.553-2.959-2.832-3.787-4.76-2.066-4.912-2.413-12.788-.62-18.454.48-1.449 2.551-6.009 1.722-7.39-.417-1.319-1.792-2.072-2.548-3.112-.893-1.313-1.863-2.967-2.476-4.422-1.654-3.867-2.485-8.153-4.27-12.02-.826-1.8-2.276-3.666-3.442-5.32-1.311-1.867-2.756-3.179-3.79-5.387-.341-.762-.824-2.007-.275-2.833.135-.554.415-.762.967-.9.89-.761 3.441.204 4.334.62 2.549 1.033 4.684 2.005 6.815 3.454.966.692 1.998 2.004 3.236 2.353h1.449c2.202.48 4.682.134 6.749.758 3.647 1.174 6.952 2.901 9.915 4.767 9.016 5.735 16.453 13.89 21.477 23.63.828 1.587 1.175 3.04 1.932 4.694 1.446 3.393 3.238 6.847 4.681 10.16 1.445 3.248 2.825 6.561 4.893 9.26 1.03 1.448 5.162 2.208 7.022 2.969 1.374.62 3.512 1.173 4.752 1.932 2.34 1.449 4.677 3.11 6.883 4.701 1.099.829 4.543 2.555 4.751 3.939" fill="#00758F"/><path fill-rule="evenodd" clip-rule="evenodd" d="M173.996 59.63a10.99 10.99 0 0 0-2.823.347v.14h.134c.556 1.102 1.521 1.868 2.204 2.834.554 1.105 1.037 2.206 1.587 3.314.068-.068.134-.14.134-.14.971-.689 1.452-1.793 1.452-3.453-.417-.488-.481-.967-.828-1.453-.412-.69-1.308-1.035-1.86-1.589z" fill="#00758F"/></g><defs><clipPath id="clip0_1743_2"><path fill="#fff" d="M0 0H256V256H0z"/></clipPath></defs></svg>