<svg aria-hidden="true" viewBox="0 0 32 32" fill="none"
    xmlns="http://www.w3.org/2000/svg">
    <g clip-path="url(#clip0_381_5426)">
        <path
            d="M25.9896 4.44022C24.066 2.51148 21.5074 1.45052 18.7815 1.45052C16.0556 1.45052 13.4939 2.51148 11.5734 4.44022L1.1466 14.8947C0.900227 15.1417 0.764404 15.4711 0.764404 15.8226C0.764404 16.1742 0.900227 16.5036 1.1466 16.7506C1.39298 16.9976 1.72148 17.1338 2.0721 17.1338C2.42271 17.1338 2.75121 16.9976 2.99759 16.7506L13.4212 6.29612C16.3746 3.33492 21.1852 3.33492 24.1386 6.29612C27.092 9.26049 27.0951 14.0808 24.1386 17.042L13.715 27.4933C13.2064 28.0032 13.2064 28.8361 13.715 29.3492C13.9614 29.5962 14.2899 29.7324 14.6405 29.7324C14.9911 29.7324 15.3196 29.5962 15.566 29.3492L25.9896 18.8979C27.9132 16.9691 28.9714 14.4038 28.9714 11.6706C28.9714 8.93745 27.9132 6.36896 25.9896 4.44339V4.44022Z"
            fill="#4169e1"></path>
        <path
            d="M24.5303 11.6706C24.5303 10.1283 23.9333 8.68092 22.8468 7.59462C20.6041 5.346 16.9558 5.346 14.7132 7.59462L0.862363 21.479C0.615987 21.7261 0.480164 22.0554 0.480164 22.407C0.480164 22.7585 0.615987 23.0879 0.862363 23.3349C1.10874 23.5819 1.43724 23.7181 1.78786 23.7181C2.13847 23.7181 2.46697 23.5819 2.71335 23.3349L16.4125 9.6152L16.4346 9.58987C16.4757 9.54236 16.5199 9.49169 16.5641 9.44735C16.6147 9.39668 16.6715 9.34917 16.7252 9.30167L16.7568 9.27316C17.9919 8.22486 19.8555 8.30087 20.9989 9.44735C22.1424 10.5938 22.2182 12.3199 21.28 13.5645L21.2706 13.5772C21.1727 13.7039 21.0874 13.8052 20.9989 13.8939C20.9136 13.9794 20.8157 14.0649 20.6767 14.1758L7.14813 27.7783C6.90175 28.0253 6.76593 28.3547 6.76593 28.7063C6.76593 29.0578 6.90175 29.3872 7.14813 29.6342C7.39451 29.8812 7.72301 30.0174 8.07362 30.0174C8.42423 30.0174 8.75274 29.8812 8.99911 29.6342L22.8499 15.7466C23.9333 14.6603 24.5335 13.2098 24.5335 11.6706H24.5303Z"
            fill="#4169e1"></path>
        <path
            d="M17.4833 14.5273C17.1358 14.369 16.8263 14.1568 16.5641 13.8939C16.3019 13.631 16.0903 13.3207 15.9324 12.9723L15.8376 12.7664L0.536996 28.1077C0.236922 28.4086 0.05056 28.7886 0.00949718 29.175C-0.0315656 29.5677 0.0821467 29.9192 0.331682 30.1694C0.543313 30.3816 0.843388 30.4988 1.17189 30.4988C1.60463 30.4988 2.04684 30.3025 2.38798 29.9604L17.6886 14.6192L17.4833 14.5242V14.5273Z"
            fill="#4169e1"></path>
    </g>
    <!-- <defs>
        <clipPath id="clip0_381_5426">
            <rect width="113.71" height="32" fill="white"></rect>
        </clipPath>
    </defs> -->
</svg>