<svg viewBox="0 0 36 32" xmlns="http://www.w3.org/2000/svg"
    xmlns:xlink="http://www.w3.org/1999/xlink">
    <defs>
        <path id="a" d="m9.5.917a9.5 9.5 0 0 1 9.5 9.5v9.5h-9.5a9.5 9.5 0 0 1 0-19z" />
        <path id="b" d="m0 19.917v-9.5l.004-.27a9.5 9.5 0 1 1 9.496 9.77z" />
        <mask id="c" fill="#fff">
            <use fill="#fff" fill-rule="evenodd" xlink:href="#a" />
        </mask>
        <mask id="d" fill="#fff">
            <use fill="#fff" fill-rule="evenodd" xlink:href="#b" />
        </mask>
    </defs>
    <g fill="none" fill-rule="evenodd">
        <path
            d="m28.192 4.7c5.077 4.933 5.077 12.93 0 17.863-.17.165-.343.325-.519.479l-8.673 7.958-8.673-7.958c-.176-.154-.35-.314-.52-.479-5.076-4.932-5.076-12.93 0-17.863 5.077-4.933 13.309-4.933 18.385 0z"
            fill="#0b7ed0" />
        <g transform="translate(0 11.083)">
            <use fill="#2cd4ed" xlink:href="#a" />
            <path
                d="m28.192-6.384c5.077 4.933 5.077 12.931 0 17.864-.17.165-.343.324-.519.478l-8.673 7.959-8.673-7.959c-.176-.154-.35-.313-.52-.478-5.076-4.933-5.076-12.93 0-17.864 5.077-4.933 13.309-4.933 18.385 0z"
                fill="#0db4e2" mask="url(#c)" />
        </g>
        <g transform="translate(19 11.083)">
            <use fill="#3169ff" xlink:href="#b" />
            <path
                d="m9.192-6.384c5.077 4.933 5.077 12.931 0 17.864-.17.165-.343.324-.519.478l-8.673 7.959-8.673-7.959c-.176-.154-.35-.313-.52-.478-5.076-4.933-5.076-12.93 0-17.864 5.077-4.933 13.309-4.933 18.385 0z"
                fill="#3153ff" mask="url(#d)" />
        </g>
    </g>
</svg>