<svg height="256" preserveAspectRatio="xMidYMid" viewBox="0 0 256 256" width="256" xmlns="http://www.w3.org/2000/svg"><path d="m0 0h256v256h-256z" fill="#fb651e"/><path d="m119.373653 144.745813-43.940693-82.3142397h20.0814933l25.8474667 52.0925867c.397655.927862.86158 1.888848 1.391787 2.882987.530207.994138.994131 2.021399 1.391786 3.081813.265104.397655.463929.762167.59648 1.093547.132552.331379.265102.629616.397654.89472.662759 1.325517 1.259233 2.617878 1.78944 3.87712s.994131 2.419052 1.391786 3.479466c1.060415-2.25338 2.220225-4.672413 3.479467-7.257173s2.551602-5.268893 3.87712-8.05248l26.24512-52.0925867h18.689707l-44.338347 83.3083737v53.08672h-16.900267z" fill="#fff"/></svg>