<svg width="256" height="233" xmlns="http://www.w3.org/2000/svg" preserveAspectRatio="xMidYMid"><path d="M14.02 0h57.286c4.12.026 6.43.184 8.323 1.13a10.65 10.65 0 0 1 4.543 4.543c1.136 2.205 1.136 5.145 1.136 11.024l-.005 76.673c-.028 6.578-.236 10.198-1.8 12.514a10.429 10.429 0 0 1-6.88 4.41c-2.78.463-6.11-.88-12.081-3.639L33.309 92.034c-9.88-4.71-15.585-7.811-20.02-12.138A44.872 44.872 0 0 1 2.533 63.061C.478 57.274.087 50.83.013 39.867L0 13.997c.026-4.12.184-6.43 1.13-8.324A10.65 10.65 0 0 1 5.673 1.13C7.566.184 9.923.026 14.02 0zm170.664 0h57.314c4.12.026 6.43.184 8.323 1.13a10.65 10.65 0 0 1 4.543 4.543C256 7.878 256 10.818 256 16.697l-.018 23.146c-.074 10.946-.466 17.444-2.52 23.285a44.872 44.872 0 0 1-10.757 16.835c-5.411 5.345-12.893 8.819-27.725 15.766l-44.36 20.644.006-102.377c.026-4.12.184-6.43 1.13-8.323A10.65 10.65 0 0 1 176.3 1.13c1.893-.946 4.25-1.104 8.385-1.13zm-58.357 137.016l44.293-20.643-.005 102.376c-.026 4.12-.184 6.43-1.13 8.323a10.65 10.65 0 0 1-4.543 4.543c-2.205 1.136-5.144 1.136-11.023 1.136l-54.61-.005c-4.12-.026-6.43-.184-8.323-1.13a10.65 10.65 0 0 1-4.543-4.544c-1.135-2.204-1.135-5.144-1.135-11.023l.017-23.213c.075-10.946.466-17.444 2.521-23.285a44.872 44.872 0 0 1 10.756-16.835c5.412-5.345 12.894-8.819 27.725-15.7z" fill="#FF5F3B"/></svg>