<svg xmlns="http://www.w3.org/2000/svg" width="1174" height="493" fill="none" viewBox="0 0 1174 493"><g filter="url(#filter0_f_1242_4)"><rect width="1166" height="485" fill="#8972CB" transform="translate(4 4)"/><path fill="#000" d="M947.438 274.336L952.906 275.506C953.135 277.937 953.771 279.707 954.812 280.817C956.208 282.317 958.115 283.067 960.531 283.067C963.135 283.067 965.146 282.317 966.562 280.817C967.979 279.317 968.938 277.217 969.438 274.516C969.729 272.866 969.865 269.401 969.844 264.12C967.385 268.29 964.323 270.376 960.656 270.376C956.094 270.376 952.562 268.005 950.062 263.265C947.562 258.524 946.312 252.838 946.312 246.207C946.312 241.647 946.885 237.446 948.031 233.606C949.177 229.735 950.833 226.75 953 224.649C955.188 222.549 957.75 221.499 960.688 221.499C964.604 221.499 967.833 223.779 970.375 228.34V222.579H975.562V263.895C975.562 271.336 975.031 276.602 973.969 279.692C972.927 282.812 971.26 285.273 968.969 287.073C966.698 288.873 963.896 289.773 960.562 289.773C956.604 289.773 953.406 288.483 950.969 285.903C948.531 283.353 947.354 279.497 947.438 274.336ZM952.094 245.622C952.094 251.893 952.958 256.469 954.688 259.349C956.417 262.23 958.583 263.67 961.188 263.67C963.771 263.67 965.938 262.245 967.688 259.394C969.438 256.514 970.312 252.013 970.312 245.892C970.312 240.042 969.406 235.631 967.594 232.661C965.802 229.69 963.635 228.205 961.094 228.205C958.594 228.205 956.469 229.675 954.719 232.616C952.969 235.526 952.094 239.862 952.094 245.622Z"/><path fill="#000" d="M913.484 270.376V222.579H918.546V229.375C920.984 224.124 924.505 221.499 929.109 221.499C931.109 221.499 932.942 222.024 934.609 223.074C936.296 224.094 937.557 225.445 938.39 227.125C939.223 228.805 939.807 230.8 940.14 233.111C940.348 234.611 940.453 237.236 940.453 240.987V270.376H934.828V241.302C934.828 238.001 934.609 235.541 934.171 233.921C933.734 232.271 932.953 230.965 931.828 230.005C930.723 229.015 929.421 228.52 927.921 228.52C925.526 228.52 923.453 229.615 921.703 231.805C919.973 233.996 919.109 238.151 919.109 244.272V270.376H913.484Z"/><path fill="#000" d="M899.905 213.713V204.397H905.53V213.713H899.905ZM899.905 270.376V222.579H905.53V270.376H899.905Z"/><path fill="#000" d="M864.889 270.376V204.397H870.514V228.07C873.139 223.689 876.451 221.499 880.451 221.499C882.91 221.499 885.045 222.204 886.857 223.614C888.67 224.995 889.962 226.915 890.732 229.375C891.524 231.835 891.92 235.406 891.92 240.087V270.376H886.295V240.087C886.295 236.036 885.68 233.096 884.451 231.265C883.243 229.405 881.524 228.475 879.295 228.475C877.628 228.475 876.055 229.105 874.576 230.365C873.118 231.595 872.076 233.276 871.451 235.406C870.826 237.536 870.514 240.477 870.514 244.227V270.376H864.889Z"/><path fill="#000" d="M859.998 263.13L860.81 270.286C859.227 270.766 857.81 271.006 856.56 271.006C854.518 271.006 852.935 270.541 851.81 269.611C850.685 268.68 849.893 267.465 849.435 265.965C848.977 264.435 848.748 261.239 848.748 256.379V228.88H844.623V222.579H848.748V210.743L854.341 205.882V222.579H859.998V228.88H854.341V256.829C854.341 259.139 854.435 260.624 854.623 261.284C854.831 261.945 855.154 262.47 855.591 262.86C856.05 263.25 856.695 263.445 857.529 263.445C858.154 263.445 858.977 263.34 859.998 263.13Z"/><path fill="#000" d="M816.106 288.783L815.481 281.177C816.711 281.657 817.784 281.897 818.7 281.897C819.95 281.897 820.95 281.597 821.7 280.997C822.45 280.397 823.065 279.557 823.544 278.477C823.898 277.667 824.471 275.656 825.263 272.446C825.367 271.996 825.534 271.336 825.763 270.466L813.169 222.579H819.231L826.138 250.258C827.034 253.768 827.836 257.459 828.544 261.329C829.19 257.609 829.961 253.978 830.856 250.438L837.95 222.579H843.575L830.95 271.186C829.596 276.436 828.544 280.052 827.794 282.032C826.794 284.703 825.648 286.653 824.356 287.883C823.065 289.143 821.523 289.773 819.731 289.773C818.648 289.773 817.44 289.443 816.106 288.783Z"/><path fill="#000" d="M781.371 270.376V222.579H786.434V229.375C788.871 224.124 792.392 221.499 796.996 221.499C798.996 221.499 800.829 222.024 802.496 223.074C804.184 224.094 805.444 225.445 806.277 227.125C807.111 228.805 807.694 230.8 808.027 233.111C808.236 234.611 808.34 237.236 808.34 240.987V270.376H802.715V241.302C802.715 238.001 802.496 235.541 802.059 233.921C801.621 232.271 800.84 230.965 799.715 230.005C798.611 229.015 797.309 228.52 795.809 228.52C793.413 228.52 791.34 229.615 789.59 231.805C787.861 233.996 786.996 238.151 786.996 244.272V270.376H781.371Z"/><path fill="#000" d="M768.042 264.48C765.959 267.03 763.949 268.831 762.011 269.881C760.095 270.931 758.032 271.456 755.824 271.456C752.178 271.456 749.376 270.181 747.417 267.63C745.459 265.05 744.48 261.765 744.48 257.774C744.48 255.434 744.845 253.303 745.574 251.383C746.324 249.433 747.292 247.873 748.48 246.702C749.688 245.532 751.042 244.647 752.542 244.047C753.647 243.627 755.313 243.222 757.542 242.832C762.084 242.052 765.428 241.122 767.574 240.042C767.595 238.931 767.605 238.226 767.605 237.926C767.605 234.626 767.074 232.301 766.011 230.95C764.574 229.12 762.438 228.205 759.605 228.205C756.959 228.205 755.001 228.88 753.73 230.23C752.48 231.55 751.553 233.906 750.949 237.296L745.449 236.216C745.949 232.826 746.772 230.095 747.917 228.025C749.063 225.925 750.72 224.319 752.886 223.209C755.053 222.069 757.563 221.499 760.417 221.499C763.251 221.499 765.553 221.979 767.324 222.939C769.095 223.899 770.397 225.115 771.23 226.585C772.063 228.025 772.647 229.855 772.98 232.075C773.167 233.456 773.261 235.946 773.261 239.546V250.348C773.261 257.879 773.376 262.65 773.605 264.66C773.855 266.64 774.334 268.545 775.042 270.376H769.167C768.584 268.695 768.209 266.73 768.042 264.48ZM767.574 246.387C765.532 247.588 762.47 248.608 758.386 249.448C756.074 249.928 754.438 250.468 753.48 251.068C752.522 251.668 751.782 252.553 751.261 253.723C750.74 254.864 750.48 256.139 750.48 257.549C750.48 259.709 751.042 261.51 752.167 262.95C753.313 264.39 754.98 265.11 757.167 265.11C759.334 265.11 761.261 264.435 762.949 263.085C764.636 261.705 765.876 259.829 766.667 257.459C767.272 255.629 767.574 252.928 767.574 249.358V246.387Z"/><path fill="#000" d="M694.229 270.376V222.579H699.291V229.375C701.729 224.124 705.249 221.499 709.854 221.499C711.854 221.499 713.687 222.024 715.354 223.074C717.041 224.094 718.301 225.445 719.135 227.125C719.968 228.805 720.551 230.8 720.885 233.111C721.093 234.611 721.197 237.236 721.197 240.987V270.376H715.572V241.302C715.572 238.001 715.354 235.541 714.916 233.921C714.479 232.271 713.697 230.965 712.572 230.005C711.468 229.015 710.166 228.52 708.666 228.52C706.27 228.52 704.197 229.615 702.447 231.805C700.718 233.996 699.854 238.151 699.854 244.272V270.376H694.229Z"/><path fill="#000" d="M657.15 246.477C657.15 237.626 658.858 231.07 662.275 226.81C665.129 223.269 668.608 221.499 672.712 221.499C677.275 221.499 681.004 223.659 683.9 227.98C686.796 232.271 688.244 238.211 688.244 245.802C688.244 251.953 687.598 256.799 686.306 260.339C685.035 263.85 683.171 266.58 680.712 268.53C678.275 270.481 675.608 271.456 672.712 271.456C668.067 271.456 664.306 269.311 661.431 265.02C658.577 260.729 657.15 254.549 657.15 246.477ZM662.931 246.477C662.931 252.598 663.858 257.189 665.712 260.249C667.567 263.28 669.9 264.795 672.712 264.795C675.504 264.795 677.827 263.265 679.681 260.204C681.535 257.144 682.462 252.478 682.462 246.207C682.462 240.297 681.525 235.826 679.65 232.796C677.796 229.735 675.483 228.205 672.712 228.205C669.9 228.205 667.567 229.72 665.712 232.751C663.858 235.781 662.931 240.357 662.931 246.477Z"/><path fill="#000" d="M608.461 256.109L614.024 254.849C614.336 258.059 615.201 260.519 616.618 262.23C618.055 263.94 620.055 264.795 622.618 264.795C625.201 264.795 627.118 264.045 628.368 262.545C629.618 261.014 630.243 259.229 630.243 257.189C630.243 255.359 629.691 253.918 628.586 252.868C627.816 252.148 625.899 251.233 622.836 250.123C618.711 248.623 615.847 247.333 614.243 246.252C612.659 245.142 611.451 243.627 610.618 241.707C609.805 239.757 609.399 237.611 609.399 235.271C609.399 233.141 609.732 231.175 610.399 229.375C611.086 227.545 612.014 226.03 613.18 224.829C614.055 223.899 615.243 223.119 616.743 222.489C618.264 221.829 619.889 221.499 621.618 221.499C624.222 221.499 626.503 222.039 628.461 223.119C630.441 224.199 631.899 225.67 632.836 227.53C633.774 229.36 634.42 231.82 634.774 234.911L629.274 235.991C629.024 233.531 628.295 231.61 627.086 230.23C625.899 228.85 624.211 228.16 622.024 228.16C619.441 228.16 617.597 228.775 616.493 230.005C615.389 231.235 614.836 232.676 614.836 234.326C614.836 235.376 615.066 236.321 615.524 237.161C615.982 238.031 616.701 238.751 617.68 239.321C618.243 239.622 619.899 240.312 622.649 241.392C626.628 242.922 629.399 244.182 630.961 245.172C632.545 246.132 633.784 247.543 634.68 249.403C635.576 251.263 636.024 253.573 636.024 256.334C636.024 259.034 635.472 261.585 634.368 263.985C633.284 266.355 631.711 268.2 629.649 269.521C627.586 270.811 625.253 271.456 622.649 271.456C618.336 271.456 615.045 270.166 612.774 267.585C610.524 265.005 609.086 261.179 608.461 256.109Z"/><path fill="#000" d="M598.445 254.984L604.257 256.019C603.341 260.909 601.643 264.705 599.164 267.405C596.684 270.106 593.518 271.456 589.664 271.456C584.809 271.456 580.955 269.311 578.101 265.02C575.268 260.699 573.851 254.654 573.851 246.883C573.851 238.841 575.289 232.601 578.164 228.16C581.039 223.719 584.768 221.499 589.351 221.499C593.789 221.499 597.414 223.674 600.226 228.025C603.039 232.376 604.445 238.496 604.445 246.387C604.445 246.868 604.434 247.588 604.414 248.548H579.664C579.872 253.798 580.903 257.819 582.757 260.609C584.611 263.4 586.924 264.795 589.695 264.795C591.757 264.795 593.518 264.015 594.976 262.455C596.434 260.894 597.591 258.404 598.445 254.984ZM579.976 241.887H598.507C598.257 237.866 597.549 234.851 596.382 232.841C594.591 229.72 592.268 228.16 589.414 228.16C586.83 228.16 584.653 229.405 582.882 231.895C581.132 234.386 580.164 237.716 579.976 241.887Z"/><path fill="#000" d="M562.147 213.713V204.397H567.772V213.713H562.147ZM562.147 270.376V222.579H567.772V270.376H562.147Z"/><path fill="#000" d="M541.381 270.376V222.579H546.444V229.825C547.736 226.435 548.923 224.199 550.006 223.119C551.111 222.039 552.319 221.499 553.631 221.499C555.527 221.499 557.454 222.369 559.413 224.109L557.475 231.625C556.1 230.455 554.725 229.87 553.35 229.87C552.121 229.87 551.017 230.41 550.038 231.49C549.058 232.541 548.361 234.011 547.944 235.901C547.319 238.781 547.006 241.932 547.006 245.352V270.376H541.381Z"/><path fill="#000" d="M529.178 254.984L534.99 256.019C534.074 260.909 532.376 264.705 529.896 267.405C527.417 270.106 524.251 271.456 520.396 271.456C515.542 271.456 511.688 269.311 508.834 265.02C506.001 260.699 504.584 254.654 504.584 246.883C504.584 238.841 506.021 232.601 508.896 228.16C511.771 223.719 515.501 221.499 520.084 221.499C524.521 221.499 528.146 223.674 530.959 228.025C533.771 232.376 535.178 238.496 535.178 246.387C535.178 246.868 535.167 247.588 535.146 248.548H510.396C510.605 253.798 511.636 257.819 513.49 260.609C515.344 263.4 517.657 264.795 520.428 264.795C522.49 264.795 524.251 264.015 525.709 262.455C527.167 260.894 528.324 258.404 529.178 254.984ZM510.709 241.887H529.24C528.99 237.866 528.282 234.851 527.115 232.841C525.324 229.72 523.001 228.16 520.146 228.16C517.563 228.16 515.386 229.405 513.615 231.895C511.865 234.386 510.896 237.716 510.709 241.887Z"/><path fill="#000" d="M493.224 270.376V263.355C490.64 268.755 487.13 271.456 482.692 271.456C480.734 271.456 478.901 270.916 477.192 269.836C475.505 268.755 474.244 267.405 473.411 265.785C472.599 264.135 472.026 262.125 471.692 259.754C471.463 258.164 471.349 255.644 471.349 252.193V222.579H476.974V249.088C476.974 253.318 477.088 256.169 477.317 257.639C477.672 259.769 478.422 261.449 479.567 262.68C480.713 263.88 482.13 264.48 483.817 264.48C485.505 264.48 487.088 263.865 488.567 262.635C490.047 261.374 491.088 259.679 491.692 257.549C492.317 255.389 492.63 252.268 492.63 248.188V222.579H498.255V270.376H493.224Z"/><path fill="#000" d="M457.645 288.693V265.29C456.77 267.06 455.541 268.53 453.958 269.701C452.395 270.871 450.728 271.456 448.958 271.456C445.02 271.456 441.624 269.191 438.77 264.66C435.937 260.129 434.52 253.918 434.52 246.027C434.52 241.227 435.093 236.921 436.239 233.111C437.405 229.3 439.083 226.42 441.27 224.469C443.478 222.489 445.895 221.499 448.52 221.499C452.624 221.499 455.853 223.989 458.208 228.97V222.579H463.27V288.693H457.645ZM440.301 246.342C440.301 252.493 441.197 257.114 442.989 260.204C444.78 263.265 446.926 264.795 449.426 264.795C451.822 264.795 453.885 263.34 455.614 260.429C457.343 257.489 458.208 253.033 458.208 247.063C458.208 240.702 457.291 235.916 455.458 232.706C453.645 229.495 451.51 227.89 449.051 227.89C446.614 227.89 444.541 229.39 442.833 232.391C441.145 235.361 440.301 240.012 440.301 246.342Z"/><path fill="#000" d="M387.175 270.376V204.397H393.237V262.59H415.8V270.376H387.175Z"/><path fill="#000" d="M372.971 263.31C375.784 266.1 378.377 268.14 380.752 269.431L378.971 275.506C375.68 273.796 372.398 271.096 369.127 267.405C365.732 270.136 361.982 271.501 357.877 271.501C353.732 271.501 349.971 270.061 346.596 267.18C343.221 264.3 340.617 260.249 338.784 255.029C336.971 249.808 336.065 243.927 336.065 237.386C336.065 230.875 336.982 224.95 338.815 219.609C340.648 214.268 343.252 210.203 346.627 207.412C350.023 204.622 353.815 203.227 358.002 203.227C362.232 203.227 366.044 204.682 369.44 207.592C372.836 210.473 375.419 214.523 377.19 219.744C378.982 224.935 379.877 230.8 379.877 237.341C379.877 242.772 379.305 247.663 378.159 252.013C377.013 256.334 375.284 260.099 372.971 263.31ZM359.627 252.148C363.127 253.558 366.013 255.659 368.284 258.449C371.846 253.768 373.627 246.733 373.627 237.341C373.627 232.001 372.992 227.335 371.721 223.344C370.471 219.354 368.627 216.263 366.19 214.073C363.773 211.853 361.055 210.743 358.034 210.743C353.513 210.743 349.763 212.978 346.784 217.449C343.805 221.889 342.315 228.535 342.315 237.386C342.315 245.967 343.784 252.553 346.721 257.144C349.68 261.735 353.45 264.03 358.034 264.03C360.2 264.03 362.242 263.445 364.159 262.275C362.263 260.504 360.263 259.244 358.159 258.494L359.627 252.148Z"/><path fill="#000" d="M294.143 249.178L299.861 248.458C300.132 251.758 300.757 254.474 301.736 256.604C302.736 258.704 304.278 260.414 306.361 261.735C308.445 263.025 310.788 263.67 313.393 263.67C315.705 263.67 317.747 263.175 319.518 262.185C321.288 261.194 322.601 259.844 323.455 258.134C324.33 256.394 324.768 254.504 324.768 252.463C324.768 250.393 324.351 248.593 323.518 247.062C322.684 245.502 321.309 244.197 319.393 243.147C318.163 242.457 315.445 241.392 311.236 239.952C307.028 238.481 304.08 237.101 302.393 235.811C300.205 234.161 298.57 232.12 297.486 229.69C296.424 227.23 295.893 224.484 295.893 221.454C295.893 218.124 296.549 215.018 297.861 212.138C299.174 209.227 301.09 207.022 303.611 205.522C306.132 204.022 308.934 203.271 312.018 203.271C315.413 203.271 318.403 204.067 320.986 205.657C323.59 207.217 325.59 209.527 326.986 212.588C328.382 215.648 329.132 219.114 329.236 222.984L323.424 223.614C323.111 219.444 322.049 216.293 320.236 214.163C318.445 212.033 315.788 210.968 312.268 210.968C308.601 210.968 305.924 211.943 304.236 213.893C302.57 215.813 301.736 218.139 301.736 220.869C301.736 223.239 302.33 225.189 303.518 226.72C304.684 228.25 307.726 229.825 312.643 231.445C317.58 233.036 320.965 234.431 322.799 235.631C325.465 237.401 327.434 239.651 328.705 242.382C329.976 245.082 330.611 248.203 330.611 251.743C330.611 255.254 329.913 258.569 328.518 261.689C327.122 264.78 325.111 267.195 322.486 268.935C319.882 270.646 316.945 271.501 313.674 271.501C309.528 271.501 306.049 270.631 303.236 268.89C300.445 267.15 298.247 264.54 296.643 261.059C295.059 257.549 294.226 253.588 294.143 249.178Z"/><path fill="#000" d="M241.235 246.477C241.235 237.626 242.943 231.07 246.36 226.81C249.214 223.269 252.693 221.499 256.797 221.499C261.36 221.499 265.089 223.659 267.985 227.98C270.881 232.271 272.329 238.211 272.329 245.802C272.329 251.953 271.683 256.799 270.391 260.339C269.12 263.85 267.256 266.58 264.797 268.53C262.36 270.481 259.693 271.456 256.797 271.456C252.152 271.456 248.391 269.311 245.516 265.02C242.662 260.729 241.235 254.549 241.235 246.477ZM247.016 246.477C247.016 252.598 247.943 257.189 249.797 260.249C251.652 263.28 253.985 264.795 256.797 264.795C259.589 264.795 261.912 263.265 263.766 260.204C265.62 257.144 266.547 252.478 266.547 246.207C266.547 240.297 265.61 235.826 263.735 232.796C261.881 229.735 259.568 228.205 256.797 228.205C253.985 228.205 251.652 229.72 249.797 232.751C247.943 235.781 247.016 240.357 247.016 246.477Z"/><path fill="#000" d="M198.438 270.376V204.397H214.219C217.781 204.397 220.5 204.712 222.375 205.342C225 206.212 227.24 207.787 229.094 210.068C231.51 213.008 233.312 216.773 234.5 221.364C235.708 225.925 236.312 231.145 236.312 237.026C236.312 242.037 235.906 246.478 235.094 250.348C234.281 254.219 233.24 257.429 231.969 259.979C230.698 262.5 229.302 264.495 227.781 265.965C226.281 267.405 224.458 268.501 222.312 269.251C220.188 270.001 217.74 270.376 214.969 270.376H198.438ZM204.5 262.59H214.281C217.302 262.59 219.667 262.185 221.375 261.375C223.104 260.564 224.479 259.424 225.5 257.954C226.938 255.884 228.052 253.108 228.844 249.628C229.656 246.117 230.062 241.872 230.062 236.891C230.062 229.99 229.271 224.695 227.688 221.004C226.125 217.283 224.219 214.793 221.969 213.533C220.344 212.633 217.729 212.183 214.125 212.183H204.5V262.59Z"/></g><defs><filter id="filter0_f_1242_4" width="1172.6" height="491.6" x=".7" y=".7" color-interpolation-filters="sRGB" filterUnits="userSpaceOnUse"><feFlood flood-opacity="0" result="BackgroundImageFix"/><feBlend in="SourceGraphic" in2="BackgroundImageFix" mode="normal" result="shape"/><feGaussianBlur result="effect1_foregroundBlur_1242_4" stdDeviation="1.65"/></filter></defs></svg>