<svg fill="none" height="32" viewBox="0 0 116 32" width="116" xmlns="http://www.w3.org/2000/svg" xmlns:xlink="http://www.w3.org/1999/xlink"><linearGradient id="a"><stop offset="0" stop-color="#5c51e3"/><stop offset="1" stop-color="#b5b0ff"/></linearGradient><linearGradient id="b" gradientUnits="userSpaceOnUse" x1="17.2" x2="17.2" xlink:href="#a" y1="8" y2="23.9999"/><linearGradient id="c" gradientUnits="userSpaceOnUse" x1="22.0003" x2="22.0003" xlink:href="#a" y1="12" y2="23.9999"/><linearGradient id="d" gradientUnits="userSpaceOnUse" x1="26.7996" x2="26.7996" xlink:href="#a" y1="9.60004" y2="24"/><linearGradient id="e" gradientUnits="userSpaceOnUse" x1="31.6004" x2="31.6004" xlink:href="#a" y1="15.2" y2="23.9999"/><rect fill="#fff" height="32" rx="4" width="115.801"/><rect fill="url(#b)" height="15.9999" rx="1.19999" width="2.39999" x="16" y="8"/><rect fill="url(#c)" height="11.9999" rx="1.19999" width="2.39999" x="20.8003" y="12"/><rect fill="url(#d)" height="14.3999" rx="1.19999" width="2.39999" x="25.5996" y="9.60004"/><rect fill="url(#e)" height="8.79996" rx="1.19999" width="2.39999" x="30.4004" y="15.2"/><path d="m43.2178 11.5h1.8225l3.8175 10.5h-1.65l-.7275-1.995h-4.7025l-.72 1.995h-1.6575zm-.8625 6.945h3.5475l-1.7775-4.875zm13.8807-1.1475v4.7025h-1.56v-4.32c0-.335-.0825-.64-.2475-.915-.16-.275-.3775-.4925-.6525-.6525-.27-.165-.575-.2475-.915-.2475-.33 0-.6325.0825-.9075.2475-.275.16-.495.3775-.66.6525s-.2475.58-.2475.915v4.32h-1.56v-7.5h1.56v.795c.26-.31.58-.555.96-.735s.79-.27 1.23-.27c.555 0 1.06.135 1.515.405s.815.6325 1.08 1.0875c.27.455.405.96.405 1.515zm5.7123-2.7975h1.665l-4.11 11.25h-1.6575l1.3575-3.75-2.6925-7.5h1.7025l1.77 5.3625zm5.4187 7.71c-.725 0-1.3875-.1775-1.9875-.5325-.595-.355-1.07-.8325-1.425-1.4325s-.5325-1.265-.5325-1.995c0-.545.1025-1.055.3075-1.53s.4875-.8925.8475-1.2525c.365-.365.785-.65 1.26-.855s.985-.3075 1.53-.3075c.53 0 .99.12 1.38.36s.71.5525.96.9375v-1.1025h1.56v11.25h-1.56v-4.8375c-.25.38-.57.6925-.96.9375-.39.24-.85.36-1.38.36zm.015-6.3975c-.435 0-.8325.11-1.1925.33s-.645.515-.855.885-.315.7775-.315 1.2225c0 .455.1075.8675.3225 1.2375s.5.665.855.885c.36.215.755.3225 1.185.3225.44 0 .825-.11 1.155-.33s.585-.515.765-.885.27-.78.27-1.23-.0925-.8575-.2775-1.2225c-.18-.37-.435-.665-.765-.885-.325-.22-.7075-.33-1.1475-.33zm4.5988 3.375v-4.6875h1.56v4.305c0 .335.0825.64.2475.915s.385.495.66.66c.275.16.5775.24.9075.24.335 0 .6375-.08.9075-.24.275-.165.4925-.385.6525-.66.165-.275.2475-.58.2475-.915v-4.305h1.56l.0075 7.5h-1.56l-.0075-.81c-.255.31-.5725.555-.9525.735s-.7875.27-1.2225.27c-.555 0-1.06-.135-1.515-.405s-.8175-.6325-1.0875-1.0875-.405-.96-.405-1.515zm10.8515 3.0075c-.69 0-1.32-.1775-1.89-.5325-.565-.355-1.0175-.83-1.3575-1.425-.335-.6-.5025-1.2625-.5025-1.9875 0-.55.0975-1.0625.2925-1.5375.195-.48.4625-.9.8025-1.26.345-.365.745-.65 1.2-.855s.94-.3075 1.455-.3075c.575 0 1.1025.12 1.5825.36.48.235.89.5625 1.23.9825.34.415.59.895.75 1.44.16.54.2075 1.115.1425 1.725h-5.7825c.065.345.19.6575.375.9375.19.275.43.4925.72.6525.295.16.6225.2425.9825.2475.38 0 .725-.095 1.035-.285.315-.19.5725-.4525.7725-.7875l1.5825.3675c-.3.665-.7525 1.21-1.3575 1.635-.605.42-1.2825.63-2.0325.63zm-2.13-4.59h4.26c-.05-.36-.1775-.685-.3825-.975-.2-.295-.4525-.5275-.7575-.6975-.3-.175-.63-.2625-.99-.2625-.355 0-.685.085-.99.255-.3.17-.55.4025-.75.6975-.195.29-.325.6175-.39.9825zm6.4771 4.395v-7.5h1.56v.795c.26-.31.58-.555.96-.735s.79-.27 1.23-.27c.28 0 .5575.0375.8325.1125l-.6225 1.575c-.195-.075-.39-.1125-.585-.1125-.33 0-.6325.0825-.9075.2475-.275.16-.495.3775-.66.6525s-.2475.58-.2475.915v4.32zm9.9867-7.5h1.665l-4.11 11.25h-1.6575l1.3575-3.75-2.6925-7.5h1.7025l1.77 5.3625z" fill="#857cf0"/></svg>